<?xml version="1.0" encoding="utf-8"?>
<!-- Generator: Adobe Illustrator 23.0.1, SVG Export Plug-In . SVG Version: 6.00 Build 0)  -->
<svg version="1.1" id="Слой_1" xmlns="http://www.w3.org/2000/svg" xmlns:xlink="http://www.w3.org/1999/xlink" x="0px" y="0px"
	 viewBox="0 0 119.5 119.5" style="enable-background:new 0 0 119.5 119.5;" xml:space="preserve">
<style type="text/css">
	.st0{fill:#FFFFFF;}
	.st1{fill-rule:evenodd;clip-rule:evenodd;fill:#FFFFFF;}
</style>
<g>
	<g>
		<path class="st0" d="M21.59,73.66h-2.45l-0.45,1.81h-0.73l2.03-7.72h0.75l2.03,7.72h-0.73L21.59,73.66z M21.44,73.05l-0.79-3.2
			c-0.12-0.47-0.23-1.03-0.26-1.21h-0.02c-0.03,0.19-0.14,0.74-0.26,1.21l-0.79,3.2H21.44z"/>
		<path class="st0" d="M27.26,68.39h-2.83v7.08h-0.68v-7.72h3.52V68.39z"/>
		<path class="st0" d="M32.02,74.84v0.63h-3.71v-7.72h3.59v0.63h-2.91v2.86h2.72v0.63h-2.72v2.98H32.02z"/>
		<path class="st0" d="M37.42,67.75v7.72h-0.68v-3.6h-2.74v3.6h-0.68v-7.72h0.68v3.47h2.74v-3.47H37.42z"/>
		<path class="st0" d="M42.55,68.39h-1.7v7.08h-0.68v-7.08h-1.7v-0.64h4.08V68.39z"/>
		<path class="st0" d="M43.38,73.29v-3.35c0-1.49,0.85-2.31,2.06-2.31c1.26,0,2.06,0.79,2.14,2.23h-0.66
			c-0.08-1.09-0.61-1.61-1.48-1.61c-0.83,0-1.4,0.55-1.4,1.7v3.35c0,1.15,0.6,1.7,1.44,1.7c0.88,0,1.39-0.54,1.5-1.61h0.66
			c-0.11,1.41-0.89,2.23-2.16,2.23C44.26,75.6,43.38,74.78,43.38,73.29z"/>
		<path class="st0" d="M52.29,68.39h-1.7v7.08h-0.68v-7.08h-1.7v-0.64h4.08V68.39z"/>
		<path class="st0" d="M57.52,73.37c0,1.38-0.83,2.11-2.19,2.11h-1.98v-7.72h1.81c1.29,0,2.05,0.73,2.05,2.01
			c0,0.96-0.4,1.54-1,1.71C57.01,71.66,57.52,72.33,57.52,73.37z M54.02,68.39v2.8h1.15c0.89,0,1.33-0.48,1.33-1.43
			c0-0.94-0.44-1.37-1.36-1.37H54.02z M56.82,73.37c0-1-0.65-1.53-1.62-1.53h-1.18v3h1.3C56.33,74.83,56.82,74.38,56.82,73.37z"/>
		<path class="st0" d="M58.56,73.08v-2.93c0-1.55,0.83-2.54,2.22-2.54c1.39,0,2.22,0.98,2.22,2.54v2.93c0,1.55-0.83,2.54-2.22,2.54
			C59.39,75.61,58.56,74.63,58.56,73.08z M62.3,73.08v-2.93c0-1.19-0.52-1.87-1.52-1.87c-1,0-1.52,0.68-1.52,1.87v2.93
			c0,1.19,0.52,1.87,1.52,1.87C61.78,74.95,62.3,74.27,62.3,73.08z"/>
		<path class="st0" d="M17.97,78.74h0.68v4.88c0,0.39-0.01,1.09-0.03,1.48l0.03,0.01c0.1-0.26,0.33-0.82,0.54-1.26l2.25-5.11h0.77
			v7.72h-0.68v-5.08l0.01-1.29l-0.02-0.01c-0.07,0.18-0.3,0.73-0.41,0.99l-2.39,5.39h-0.75V78.74z"/>
		<path class="st0" d="M23.7,84.27v-3.35c0-1.49,0.85-2.31,2.06-2.31c1.26,0,2.06,0.79,2.14,2.23h-0.66
			c-0.08-1.09-0.61-1.61-1.48-1.61c-0.83,0-1.4,0.55-1.4,1.7v3.35c0,1.15,0.6,1.7,1.44,1.7c0.88,0,1.39-0.54,1.5-1.61h0.66
			c-0.11,1.41-0.89,2.23-2.16,2.23C24.57,86.59,23.7,85.76,23.7,84.27z"/>
		<path class="st0" d="M30.43,82.7l-0.55,0.75v3.01H29.2v-7.72h0.68v3.68l0.63-0.9l1.97-2.78h0.85l-2.46,3.36l2.77,4.35h-0.82
			L30.43,82.7z"/>
		<path class="st0" d="M38.02,78.74l-1.94,6.34c-0.26,0.86-0.74,1.48-1.69,1.48h-0.26V85.9h0.26c0.6,0,0.88-0.44,1.06-1.04
			l0.25-0.82l-1.97-5.31h0.73L36,83.06l1.31-4.32H38.02z"/>
		<path class="st0" d="M38.66,84.27v-3.35c0-1.49,0.85-2.31,2.06-2.31c1.26,0,2.06,0.79,2.14,2.23h-0.66
			c-0.08-1.09-0.61-1.61-1.48-1.61c-0.83,0-1.4,0.55-1.4,1.7v3.35c0,1.15,0.6,1.7,1.44,1.7c0.88,0,1.39-0.54,1.5-1.61h0.66
			c-0.11,1.41-0.89,2.23-2.16,2.23C39.53,86.59,38.66,85.76,38.66,84.27z"/>
		<path class="st0" d="M43.95,84.27v-3.35c0-1.49,0.85-2.31,2.06-2.31c1.26,0,2.06,0.79,2.14,2.23h-0.66
			c-0.08-1.09-0.61-1.61-1.48-1.61c-0.83,0-1.4,0.55-1.4,1.7v3.35c0,1.15,0.6,1.7,1.44,1.7c0.88,0,1.39-0.54,1.5-1.61h0.66
			c-0.11,1.41-0.89,2.23-2.16,2.23C44.82,86.59,43.95,85.76,43.95,84.27z"/>
		<path class="st0" d="M52.85,79.38h-1.7v7.08h-0.68v-7.08h-1.7v-0.64h4.08V79.38z"/>
		<path class="st0" d="M58.08,84.35c0,1.38-0.83,2.11-2.19,2.11H53.9v-7.72h1.81c1.29,0,2.05,0.73,2.05,2.01c0,0.96-0.4,1.54-1,1.71
			C57.57,82.64,58.08,83.31,58.08,84.35z M54.58,79.38v2.8h1.15c0.89,0,1.33-0.48,1.33-1.43c0-0.94-0.44-1.37-1.36-1.37H54.58z
			 M57.38,84.35c0-1-0.65-1.53-1.62-1.53h-1.18v3h1.3C56.89,85.82,57.38,85.36,57.38,84.35z"/>
		<path class="st0" d="M62.94,85.83v0.63h-3.71v-7.72h3.59v0.63h-2.91v2.86h2.72v0.63h-2.72v2.98H62.94z"/>
		<path class="st0" d="M68.34,78.74v7.72h-0.68v-3.6h-2.74v3.6h-0.68v-7.72h0.68v3.47h2.74v-3.47H68.34z"/>
		<path class="st0" d="M74.15,78.74v7.72h-0.68v-3.6h-2.74v3.6h-0.68v-7.72h0.68v3.47h2.74v-3.47H74.15z"/>
		<path class="st0" d="M75.64,84.06v-2.93c0-1.55,0.83-2.54,2.22-2.54c1.39,0,2.22,0.98,2.22,2.54v2.93c0,1.55-0.83,2.54-2.22,2.54
			C76.46,86.6,75.64,85.62,75.64,84.06z M79.37,84.06v-2.93c0-1.19-0.52-1.87-1.52-1.87c-1,0-1.52,0.68-1.52,1.87v2.93
			c0,1.19,0.52,1.87,1.52,1.87C78.86,85.94,79.37,85.25,79.37,84.06z"/>
		<path class="st0" d="M85.07,79.38h-2.83v7.08h-0.68v-7.72h3.52V79.38z"/>
		<path class="st0" d="M85.91,84.06v-2.93c0-1.55,0.83-2.54,2.22-2.54c1.39,0,2.22,0.98,2.22,2.54v2.93c0,1.55-0.83,2.54-2.22,2.54
			C86.74,86.6,85.91,85.62,85.91,84.06z M89.65,84.06v-2.93c0-1.19-0.52-1.87-1.52-1.87c-1,0-1.52,0.68-1.52,1.87v2.93
			c0,1.19,0.52,1.87,1.52,1.87C89.13,85.94,89.65,85.25,89.65,84.06z"/>
		<path class="st0" d="M17.97,89.76h0.68v4.88c0,0.39-0.01,1.09-0.03,1.48l0.03,0.01c0.1-0.26,0.33-0.82,0.54-1.26l2.25-5.11h0.77
			v7.72h-0.68V92.4l0.01-1.29l-0.02-0.01c-0.07,0.18-0.3,0.73-0.41,0.99l-2.39,5.39h-0.75V89.76z"/>
		<path class="st0" d="M28.02,89.76v7.72h-0.68v-3.6h-2.74v3.6h-0.68v-7.72h0.68v3.47h2.74v-3.47H28.02z"/>
		<path class="st0" d="M33.14,90.4h-1.7v7.08h-0.68V90.4h-1.7v-0.64h4.08V90.4z"/>
		<path class="st0" d="M37.91,96.85v0.63h-3.71v-7.72h3.59v0.63h-2.91v2.86h2.72v0.63h-2.72v2.98H37.91z"/>
		<path class="st0" d="M42.82,89.76v7.72h-0.68V90.4h-1.98c-0.1,2.44-0.2,4.64-0.33,5.59c-0.12,0.98-0.61,1.59-1.48,1.59v-0.65
			c0.51,0,0.75-0.43,0.82-1.04c0.1-0.83,0.23-3,0.34-6.13H42.82z"/>
		<path class="st0" d="M48.15,89.76v7.72h-0.68V90.4h-1.98c-0.1,2.44-0.2,4.64-0.33,5.59c-0.12,0.98-0.61,1.59-1.48,1.59v-0.65
			c0.51,0,0.75-0.43,0.82-1.04c0.1-0.83,0.23-3,0.34-6.13H48.15z"/>
		<path class="st0" d="M53.56,96.85v0.63h-3.71v-7.72h3.59v0.63h-2.91v2.86h2.72v0.63h-2.72v2.98H53.56z"/>
		<path class="st0" d="M56.08,93.72l-0.55,0.75v3.01h-0.68v-7.72h0.68v3.68l0.63-0.9l1.97-2.78h0.85l-2.46,3.36l2.77,4.35h-0.82
			L56.08,93.72z"/>
		<path class="st0" d="M63.57,90.4h-1.7v7.08h-0.68V90.4h-1.7v-0.64h4.08V90.4z"/>
		<path class="st0" d="M67.14,95.67h-2.45l-0.45,1.81h-0.73l2.03-7.72h0.75l2.03,7.72h-0.73L67.14,95.67z M66.98,95.05l-0.79-3.2
			c-0.12-0.47-0.23-1.03-0.26-1.21H65.9c-0.03,0.19-0.14,0.74-0.26,1.21l-0.79,3.2H66.98z"/>
	</g>
	<g>
		<g>
			<polygon class="st1" points="41.6,42.16 38.2,31.93 34.77,42.16 			"/>
			<polygon class="st1" points="17.95,18.72 17.95,62.43 17.97,62.43 34.56,18.72 			"/>
			<polygon class="st1" points="92.5,42.16 89.1,31.93 85.67,42.16 			"/>
			<polygon class="st1" points="109.3,18.72 92.7,18.72 109.3,62.43 			"/>
			<polygon class="st1" points="82.62,50.34 78.08,62.43 100.03,62.43 95.49,50.34 			"/>
			<polygon class="st1" points="31.72,50.34 27.18,62.43 49.13,62.43 44.59,50.34 			"/>
			<polygon class="st1" points="68.07,18.72 68.07,24.56 59.39,24.56 59.39,18.72 41.8,18.72 58.4,62.43 59.39,62.43 59.39,28.34 
				68.07,28.34 68.07,62.43 68.87,62.43 85.46,18.72 			"/>
		</g>
	</g>
	<rect x="10.2" y="18.72" class="st0" width="3.82" height="82.07"/>
</g>
</svg>
