<svg preserveAspectRatio="none" width="100%" height="100%" overflow="visible" style="display: block;" viewBox="0 0 115 42" fill="none" xmlns="http://www.w3.org/2000/svg">
<g id="Group">
<path id="Vector" d="M5.71985 8.39337H1.8593L1.15023 10.9046H-6.06531e-05L3.19868 0.193764H4.38048L7.57922 10.9046H6.42893L5.71985 8.39337ZM5.48349 7.54705L4.23866 3.10733C4.04957 2.45524 3.87624 1.67829 3.82897 1.42856H3.79746C3.75019 1.69217 3.57686 2.45524 3.38777 3.10733L2.14294 7.54705H5.48349Z" fill="var(--fill-0, #071A31)"/>
<path id="Vector_2" d="M14.6543 1.08171H10.1949V10.9046H9.12345V0.193764H14.67V1.08171H14.6543Z" fill="var(--fill-0, #071A31)"/>
<path id="Vector_3" d="M22.1547 10.0305V10.9046H16.3087V0.193764H21.9656V1.06783H17.3802V5.03583H21.6662V5.9099H17.3802V10.0444H22.1547V10.0305Z" fill="var(--fill-0, #071A31)"/>
<path id="Vector_4" d="M30.6638 0.193764V10.9046H29.5923V5.9099H25.2747V10.9046H24.2033V0.193764H25.2747V5.00808H29.5923V0.193764H30.6638Z" fill="var(--fill-0, #071A31)"/>
<path id="Vector_5" d="M38.7471 1.08171H36.0684V10.9046H34.9969V1.08171H32.3181V0.193764H38.7471V1.08171Z" fill="var(--fill-0, #071A31)"/>
<path id="Vector_6" d="M40.0551 7.87906V3.23123C40.0551 1.16399 41.3944 0.0263026 43.3011 0.0263026C45.2865 0.0263026 46.5471 1.12236 46.6731 3.12023H45.6332C45.5071 1.60796 44.672 0.886502 43.3011 0.886502C41.9932 0.886502 41.095 1.64957 41.095 3.2451V7.89293C41.095 9.48846 42.0405 10.2515 43.3641 10.2515C44.7507 10.2515 45.5544 9.50233 45.7277 8.0178H46.7677C46.5944 9.97405 45.3653 11.1117 43.3641 11.1117C41.4417 11.084 40.0551 9.9463 40.0551 7.87906Z" fill="var(--fill-0, #071A31)"/>
<path id="Vector_7" d="M54.0949 1.08171H51.4161V10.9046H50.3446V1.08171H47.6659V0.193764H54.0949V1.08171Z" fill="var(--fill-0, #071A31)"/>
<path id="Vector_8" d="M62.3358 7.99158C62.3358 9.90621 61.028 10.919 58.885 10.919H55.765V0.208206H58.6171C60.6498 0.208206 61.8473 1.22101 61.8473 2.99689C61.8473 4.32881 61.217 5.13352 60.2716 5.36938C61.5322 5.61911 62.3358 6.54868 62.3358 7.99158ZM56.8208 1.08227V4.96703H58.6328C60.0352 4.96703 60.7286 4.30107 60.7286 2.98303C60.7286 1.67886 60.0352 1.08227 58.5856 1.08227H56.8208ZM61.2328 7.99158C61.2328 6.60417 60.2086 5.86884 58.6801 5.86884H56.8208V10.0311H58.8692C60.4607 10.0172 61.2328 9.39287 61.2328 7.99158Z" fill="var(--fill-0, #071A31)"/>
<path id="Vector_9" d="M63.9745 7.58884V3.52372C63.9745 1.37323 65.2823 -0.000305451 67.4726 -0.000305451C69.6629 -0.000305451 70.9707 1.35936 70.9707 3.52372V7.58884C70.9707 9.73932 69.6629 11.1129 67.4726 11.1129C65.2823 11.099 63.9745 9.73932 63.9745 7.58884ZM69.8677 7.58884V3.52372C69.8677 1.8727 69.0483 0.929258 67.4726 0.929258C65.8969 0.929258 65.0775 1.8727 65.0775 3.52372V7.58884C65.0775 9.23986 65.8969 10.1833 67.4726 10.1833C69.0483 10.1833 69.8677 9.23986 69.8677 7.58884Z" fill="var(--fill-0, #071A31)"/>
<path id="Vector_10" d="M0.0155188 15.4398H1.08702V22.2104C1.08702 22.7515 1.07126 23.7227 1.03975 24.2638L1.08702 24.2777C1.24459 23.9169 1.60701 23.14 1.93792 22.5295L5.48332 15.4398H6.69663V26.1507H5.62513V19.1026L5.64089 17.3128L5.60937 17.299C5.49907 17.5487 5.13665 18.3118 4.96332 18.6725L1.19732 26.1507H0.0155188V15.4398Z" fill="var(--fill-0, #071A31)"/>
<path id="Vector_11" d="M9.04463 23.113V18.4652C9.04463 16.398 10.384 15.2603 12.2906 15.2603C14.2761 15.2603 15.5367 16.3563 15.6627 18.3542H14.6227C14.4967 16.8419 13.6615 16.1205 12.2906 16.1205C10.9828 16.1205 10.0846 16.8836 10.0846 18.4791V23.1269C10.0846 24.7224 11.0301 25.4855 12.3537 25.4855C13.7403 25.4855 14.5439 24.7363 14.7173 23.2518H15.7573C15.5839 25.208 14.3549 26.3457 12.3537 26.3457C10.4155 26.3318 9.04463 25.1803 9.04463 23.113Z" fill="var(--fill-0, #071A31)"/>
<path id="Vector_12" d="M19.6494 20.934L18.7827 21.9745V26.1507H17.7112V15.4398H18.7827V20.5455L19.7754 19.2968L22.8796 15.4398H24.219L20.3427 20.1015L24.7075 26.1368H23.4154L19.6494 20.934Z" fill="var(--fill-0, #071A31)"/>
<path id="Vector_13" d="M31.6091 15.4396L28.5521 24.2358C28.1424 25.429 27.3861 26.2892 25.8891 26.2892H25.4795V25.3735H25.8891C26.8346 25.3735 27.2758 24.763 27.5594 23.9306L27.9534 22.7929L24.8492 15.4258H25.9994L28.4261 21.4332L30.4903 15.4396H31.6091Z" fill="var(--fill-0, #071A31)"/>
<path id="Vector_14" d="M32.6176 23.113V18.4652C32.6176 16.398 33.957 15.2603 35.8636 15.2603C37.8491 15.2603 39.1096 16.3563 39.2357 18.3542H38.1957C38.0697 16.8419 37.2345 16.1205 35.8636 16.1205C34.5558 16.1205 33.6576 16.8836 33.6576 18.4791V23.1269C33.6576 24.7224 34.603 25.4855 35.9267 25.4855C37.3133 25.4855 38.1169 24.7363 38.2903 23.2518H39.3302C39.1569 25.208 37.9278 26.3457 35.9267 26.3457C33.9885 26.3318 32.6176 25.1803 32.6176 23.113Z" fill="var(--fill-0, #071A31)"/>
<path id="Vector_15" d="M40.9532 23.113V18.4652C40.9532 16.398 42.2925 15.2603 44.1992 15.2603C46.1846 15.2603 47.4452 16.3563 47.5713 18.3542H46.5313C46.4052 16.8419 45.5701 16.1205 44.1992 16.1205C42.8913 16.1205 41.9932 16.8836 41.9932 18.4791V23.1269C41.9932 24.7224 42.9386 25.4855 44.2622 25.4855C45.6489 25.4855 46.4525 24.7363 46.6258 23.2518H47.6658C47.4925 25.208 46.2634 26.3457 44.2622 26.3457C42.3241 26.3318 40.9532 25.1803 40.9532 23.113Z" fill="var(--fill-0, #071A31)"/>
<path id="Vector_16" d="M54.9772 16.3278H52.2985V26.1507H51.227V16.3278H48.5482V15.4398H54.9772V16.3278Z" fill="var(--fill-0, #071A31)"/>
<path id="Vector_17" d="M63.2185 23.2232C63.2185 25.1378 61.9107 26.1507 59.7677 26.1507H56.632V15.4398H59.484C61.5167 15.4398 62.7143 16.4527 62.7143 18.2285C62.7143 19.5605 62.084 20.3652 61.1385 20.601C62.4149 20.8507 63.2185 21.7803 63.2185 23.2232ZM57.7035 16.3278V20.2125H59.5155C60.9179 20.2125 61.6113 19.5466 61.6113 18.2285C61.6113 16.9244 60.918 16.3278 59.4683 16.3278H57.7035ZM62.1155 23.2232C62.1155 21.8358 61.0913 21.1005 59.5628 21.1005H57.7035V25.2627H59.7519C61.3434 25.2627 62.1155 24.6245 62.1155 23.2232Z" fill="var(--fill-0, #071A31)"/>
<path id="Vector_18" d="M70.8765 25.2766V26.1507H65.0306V15.4398H70.6874V16.3139H66.1021V20.2819H70.3881V21.156H66.1021V25.2905H70.8765V25.2766Z" fill="var(--fill-0, #071A31)"/>
<path id="Vector_19" d="M79.3853 15.4398V26.1507H78.3138V21.156H73.9963V26.1507H72.9248V15.4398H73.9963V20.2542H78.3138V15.4398H79.3853Z" fill="var(--fill-0, #071A31)"/>
<path id="Vector_20" d="M88.5405 15.4398V26.1507H87.469V21.156H83.1515V26.1507H82.08V15.4398H83.1515V20.2542H87.469V15.4398H88.5405Z" fill="var(--fill-0, #071A31)"/>
<path id="Vector_21" d="M90.8884 22.8213V18.7561C90.8884 16.6057 92.1963 15.2321 94.3865 15.2321C96.5768 15.2321 97.8847 16.5918 97.8847 18.7561V22.8213C97.8847 24.9717 96.5768 26.3453 94.3865 26.3453C92.1805 26.3453 90.8884 24.9856 90.8884 22.8213ZM96.7659 22.8213V18.7561C96.7659 17.1051 95.9465 16.1617 94.3708 16.1617C92.795 16.1617 91.9757 17.1051 91.9757 18.7561V22.8213C91.9757 24.4723 92.795 25.4157 94.3708 25.4157C95.9623 25.4296 96.7659 24.4723 96.7659 22.8213Z" fill="var(--fill-0, #071A31)"/>
<path id="Vector_22" d="M105.747 16.3278H101.288V26.1507H100.217V15.4398H105.763V16.3278H105.747Z" fill="var(--fill-0, #071A31)"/>
<path id="Vector_23" d="M107.071 22.8213V18.7561C107.071 16.6057 108.379 15.2321 110.569 15.2321C112.759 15.2321 114.067 16.5918 114.067 18.7561V22.8213C114.067 24.9717 112.759 26.3453 110.569 26.3453C108.379 26.3453 107.071 24.9856 107.071 22.8213ZM112.964 22.8213V18.7561C112.964 17.1051 112.145 16.1617 110.569 16.1617C108.993 16.1617 108.174 17.1051 108.174 18.7561V22.8213C108.174 24.4723 108.993 25.4157 110.569 25.4157C112.145 25.4296 112.964 24.4723 112.964 22.8213Z" fill="var(--fill-0, #071A31)"/>
<path id="Vector_24" d="M0.0155188 30.7268H1.08702V37.4974C1.08702 38.0385 1.07126 39.0096 1.03975 39.5507L1.08702 39.5646C1.24459 39.2039 1.60701 38.4269 1.93792 37.8165L5.48332 30.7268H6.69663V41.4376H5.62513V34.3896L5.64089 32.5998L5.60937 32.5859C5.49907 32.8357 5.13665 33.5987 4.96332 33.9595L1.19732 41.4376H0.0155188V30.7268Z" fill="var(--fill-0, #071A31)"/>
<path id="Vector_25" d="M15.8517 30.7268V41.4376H14.7802V36.4429H10.4627V41.4376H9.39123V30.7268H10.4627V35.5411H14.7802V30.7268H15.8517Z" fill="var(--fill-0, #071A31)"/>
<path id="Vector_26" d="M23.9195 31.6147H21.2408V41.4376H20.1693V31.6147H17.4905V30.7268H23.9195V31.6147Z" fill="var(--fill-0, #071A31)"/>
<path id="Vector_27" d="M31.4358 40.5635V41.4376H25.5898V30.7268H31.2467V31.6009H26.6613V35.5689H30.9473V36.4429H26.6613V40.5774H31.4358V40.5635Z" fill="var(--fill-0, #071A31)"/>
<path id="Vector_28" d="M39.1727 30.7268V41.4376H38.1012V31.6147H34.9812C34.8237 35 34.6661 38.0523 34.4612 39.3704C34.2722 40.73 33.5 41.5764 32.1292 41.5764V40.6745C32.9328 40.6745 33.311 40.078 33.4213 39.2316C33.5788 38.0801 33.7837 35.0694 33.957 30.7268H39.1727Z" fill="var(--fill-0, #071A31)"/>
<path id="Vector_29" d="M47.5713 30.7268V41.4376H46.4998V31.6147H43.3798C43.2223 35 43.0647 38.0523 42.8598 39.3704C42.6708 40.73 41.8986 41.5764 40.5278 41.5764V40.6745C41.3314 40.6745 41.7096 40.078 41.8199 39.2316C41.9774 38.0801 42.1823 35.0694 42.3556 30.7268H47.5713Z" fill="var(--fill-0, #071A31)"/>
<path id="Vector_30" d="M56.0962 40.5635V41.4376H50.2503V30.7268H55.9071V31.6009H51.3218V35.5689H55.6077V36.4429H51.3218V40.5774H56.0962V40.5635Z" fill="var(--fill-0, #071A31)"/>
<path id="Vector_31" d="M60.0668 36.2209L59.2002 37.2615V41.4376H58.1287V30.7268H59.2002V35.8325L60.1929 34.5838L63.2971 30.7268H64.6365L60.7602 35.3885L65.1249 41.4237H63.8328L60.0668 36.2209Z" fill="var(--fill-0, #071A31)"/>
<path id="Vector_32" d="M71.869 31.6147H69.1903V41.4376H68.1188V31.6147H65.44V30.7268H71.869V31.6147Z" fill="var(--fill-0, #071A31)"/>
<path id="Vector_33" d="M77.4944 38.9264H73.6338L72.9247 41.4376H71.7744L74.9732 30.7268H76.155L79.3537 41.4376H78.2034L77.4944 38.9264ZM77.2422 38.0662L75.9974 33.6265C75.8083 32.9744 75.635 32.1975 75.5877 31.9477H75.5405C75.4932 32.2113 75.3198 32.9744 75.1308 33.6265L73.8859 38.0662H77.2422Z" fill="var(--fill-0, #071A31)"/>
</g>
</svg>
