<svg preserveAspectRatio="none" width="100%" height="100%" overflow="visible" style="display: block;" viewBox="0 0 48 15" fill="none" xmlns="http://www.w3.org/2000/svg">
<g id="Group">
<path id="Vector" d="M2.38094 2.94825H0.773968L0.478811 3.83049H0L1.33149 0.0675835H1.82342L3.1549 3.83049H2.67609L2.38094 2.94825ZM2.28255 2.65093L1.76438 1.09117C1.68568 0.862082 1.61353 0.589126 1.59385 0.50139H1.58073C1.56105 0.594 1.4889 0.862082 1.4102 1.09117L0.892031 2.65093H2.28255Z" fill="var(--fill-0, #071A31)"/>
<path id="Vector_2" d="M6.09959 0.379534H4.24338V3.83049H3.79736V0.0675835H6.10615V0.379534H6.09959Z" fill="var(--fill-0, #071A31)"/>
<path id="Vector_3" d="M9.22149 3.52341V3.83049H6.78809V0.0675835H9.14278V0.374659H7.2341V1.76869H9.01816V2.07577H7.2341V3.52829H9.22149V3.52341Z" fill="var(--fill-0, #071A31)"/>
<path id="Vector_4" d="M12.7634 0.0675835V3.83049H12.3174V2.07577H10.5202V3.83049H10.0742V0.0675835H10.5202V1.75894H12.3174V0.0675835H12.7634Z" fill="var(--fill-0, #071A31)"/>
<path id="Vector_5" d="M16.1282 0.379534H15.0132V3.83049H14.5672V0.379534H13.4521V0.0675835H16.1282V0.379534Z" fill="var(--fill-0, #071A31)"/>
<path id="Vector_6" d="M16.6729 2.76818V1.13531C16.6729 0.409052 17.2304 0.00936305 18.024 0.00936305C18.8505 0.00936305 19.3752 0.394429 19.4277 1.09632H18.9948C18.9423 0.565027 18.5947 0.311567 18.024 0.311567C17.4796 0.311567 17.1057 0.579648 17.1057 1.14018V2.77305C17.1057 3.33359 17.4993 3.60167 18.0503 3.60167C18.6274 3.60167 18.962 3.33846 19.0341 2.81692H19.467C19.3949 3.50419 18.8833 3.90388 18.0503 3.90388C17.25 3.89413 16.6729 3.49444 16.6729 2.76818Z" fill="var(--fill-0, #071A31)"/>
<path id="Vector_7" d="M22.5169 0.379534H21.4019V3.83049H20.9559V0.379534H19.8408V0.0675835H22.5169V0.379534Z" fill="var(--fill-0, #071A31)"/>
<path id="Vector_8" d="M25.9475 2.80766C25.9475 3.4803 25.4031 3.83612 24.5111 3.83612H23.2124V0.0732178H24.3996C25.2457 0.0732178 25.7442 0.429034 25.7442 1.05294C25.7442 1.52086 25.4818 1.80357 25.0883 1.88643C25.613 1.97417 25.9475 2.30074 25.9475 2.80766ZM23.6519 0.380293V1.74508H24.4061C24.9899 1.74508 25.2785 1.51112 25.2785 1.04806C25.2785 0.589886 24.9899 0.380293 24.3865 0.380293H23.6519ZM25.4884 2.80766C25.4884 2.32024 25.0621 2.0619 24.4258 2.0619H23.6519V3.52417H24.5045C25.167 3.51929 25.4884 3.29996 25.4884 2.80766Z" fill="var(--fill-0, #071A31)"/>
<path id="Vector_9" d="M26.6299 2.6662V1.23805C26.6299 0.482549 27.1743 0 28.086 0C28.9977 0 29.5421 0.477675 29.5421 1.23805V2.6662C29.5421 3.42171 28.9977 3.90426 28.086 3.90426C27.1743 3.89938 26.6299 3.42171 26.6299 2.6662ZM29.0829 2.6662V1.23805C29.0829 0.658021 28.7419 0.326572 28.086 0.326572C27.4301 0.326572 27.089 0.658021 27.089 1.23805V2.6662C27.089 3.24624 27.4301 3.57768 28.086 3.57768C28.7419 3.57768 29.0829 3.24624 29.0829 2.6662Z" fill="var(--fill-0, #071A31)"/>
<path id="Vector_10" d="M0.00683594 5.42387H0.452852V7.80249C0.452852 7.99259 0.446293 8.33378 0.433175 8.52388L0.452852 8.52875C0.518442 8.40202 0.669301 8.12906 0.807041 7.9146L2.28283 5.42387H2.78787V9.18677H2.34186V6.71066L2.34842 6.08189L2.3353 6.07702C2.28939 6.16475 2.13853 6.43283 2.06638 6.55956L0.498765 9.18677H0.00683594V5.42387Z" fill="var(--fill-0, #071A31)"/>
<path id="Vector_11" d="M3.76416 8.11976V6.4869C3.76416 5.76064 4.32168 5.36095 5.11532 5.36095C5.94176 5.36095 6.46649 5.74601 6.51896 6.4479H6.08606C6.03359 5.91661 5.68596 5.66315 5.11532 5.66315C4.57092 5.66315 4.19706 5.93124 4.19706 6.49177V8.12464C4.19706 8.68517 4.5906 8.95326 5.14156 8.95326C5.71876 8.95326 6.05327 8.69005 6.12542 8.16851H6.55831C6.48616 8.85577 5.97456 9.25546 5.14156 9.25546C4.3348 9.25058 3.76416 8.84602 3.76416 8.11976Z" fill="var(--fill-0, #071A31)"/>
<path id="Vector_12" d="M8.17883 7.35406L7.81808 7.71963V9.18677H7.37207V5.42387H7.81808V7.21758L8.23131 6.7789L9.52344 5.42387H10.081L8.46743 7.06161L10.2843 9.1819H9.74645L8.17883 7.35406Z" fill="var(--fill-0, #071A31)"/>
<path id="Vector_13" d="M13.1576 5.42404L11.8851 8.51431C11.7146 8.93349 11.3998 9.23569 10.7766 9.23569H10.6061V8.91399H10.7766C11.1702 8.91399 11.3538 8.69953 11.4719 8.40707L11.6359 8.00739L10.3438 5.41917H10.8226L11.8327 7.52971L12.6919 5.42404H13.1576Z" fill="var(--fill-0, #071A31)"/>
<path id="Vector_14" d="M13.5776 8.11976V6.4869C13.5776 5.76064 14.1352 5.36095 14.9288 5.36095C15.7552 5.36095 16.28 5.74601 16.3324 6.4479H15.8995C15.8471 5.91661 15.4994 5.66315 14.9288 5.66315C14.3844 5.66315 14.0105 5.93124 14.0105 6.49177V8.12464C14.0105 8.68517 14.4041 8.95326 14.955 8.95326C15.5322 8.95326 15.8667 8.69005 15.9389 8.16851H16.3718C16.2996 8.85577 15.788 9.25546 14.955 9.25546C14.1483 9.25058 13.5776 8.84602 13.5776 8.11976Z" fill="var(--fill-0, #071A31)"/>
<path id="Vector_15" d="M17.0469 8.11976V6.4869C17.0469 5.76064 17.6044 5.36095 18.398 5.36095C19.2245 5.36095 19.7492 5.74601 19.8017 6.4479H19.3688C19.3163 5.91661 18.9687 5.66315 18.398 5.66315C17.8536 5.66315 17.4798 5.93124 17.4798 6.49177V8.12464C17.4798 8.68517 17.8733 8.95326 18.4243 8.95326C19.0015 8.95326 19.336 8.69005 19.4081 8.16851H19.841C19.7689 8.85577 19.2573 9.25546 18.4243 9.25546C17.6175 9.25058 17.0469 8.84602 17.0469 8.11976Z" fill="var(--fill-0, #071A31)"/>
<path id="Vector_16" d="M22.8846 5.73582H21.7696V9.18677H21.3235V5.73582H20.2085V5.42387H22.8846V5.73582Z" fill="var(--fill-0, #071A31)"/>
<path id="Vector_17" d="M26.3144 8.15831C26.3144 8.83095 25.77 9.18677 24.878 9.18677H23.5728V5.42387H24.7599C25.6061 5.42387 26.1045 5.77969 26.1045 6.40359C26.1045 6.87151 25.8422 7.15422 25.4486 7.23708C25.9799 7.32482 26.3144 7.65139 26.3144 8.15831ZM24.0188 5.73582V7.1006H24.7731C25.3568 7.1006 25.6454 6.86664 25.6454 6.40359C25.6454 5.94541 25.3568 5.73582 24.7534 5.73582H24.0188ZM25.8553 8.15831C25.8553 7.67089 25.429 7.41255 24.7927 7.41255H24.0188V8.87482H24.8714C25.5339 8.87482 25.8553 8.65061 25.8553 8.15831Z" fill="var(--fill-0, #071A31)"/>
<path id="Vector_18" d="M29.5023 8.8797V9.18677H27.0688V5.42387H29.4235V5.73095H27.5149V7.12498H29.2989V7.43205H27.5149V8.88457H29.5023V8.8797Z" fill="var(--fill-0, #071A31)"/>
<path id="Vector_19" d="M33.0447 5.42387V9.18677H32.5987V7.43205H30.8015V9.18677H30.3555V5.42387H30.8015V7.11522H32.5987V5.42387H33.0447Z" fill="var(--fill-0, #071A31)"/>
<path id="Vector_20" d="M36.8552 5.42387V9.18677H36.4092V7.43205H34.612V9.18677H34.166V5.42387H34.612V7.11522H36.4092V5.42387H36.8552Z" fill="var(--fill-0, #071A31)"/>
<path id="Vector_21" d="M37.8325 8.01776V6.58962C37.8325 5.83411 38.3769 5.35156 39.2886 5.35156C40.2003 5.35156 40.7447 5.82924 40.7447 6.58962V8.01776C40.7447 8.77327 40.2003 9.25582 39.2886 9.25582C38.3704 9.25582 37.8325 8.77814 37.8325 8.01776ZM40.279 8.01776V6.58962C40.279 6.00958 39.938 5.67814 39.2821 5.67814C38.6262 5.67814 38.2851 6.00958 38.2851 6.58962V8.01776C38.2851 8.5978 38.6262 8.92925 39.2821 8.92925C39.9445 8.93412 40.279 8.5978 40.279 8.01776Z" fill="var(--fill-0, #071A31)"/>
<path id="Vector_22" d="M44.018 5.73582H42.1618V9.18677H41.7158V5.42387H44.0246V5.73582H44.018Z" fill="var(--fill-0, #071A31)"/>
<path id="Vector_23" d="M44.5688 8.01776V6.58962C44.5688 5.83411 45.1132 5.35156 46.025 5.35156C46.9367 5.35156 47.4811 5.82924 47.4811 6.58962V8.01776C47.4811 8.77327 46.9367 9.25582 46.025 9.25582C45.1132 9.25582 44.5688 8.77814 44.5688 8.01776ZM47.0219 8.01776V6.58962C47.0219 6.00958 46.6809 5.67814 46.025 5.67814C45.369 5.67814 45.028 6.00958 45.028 6.58962V8.01776C45.028 8.5978 45.369 8.92925 46.025 8.92925C46.6809 8.93412 47.0219 8.5978 47.0219 8.01776Z" fill="var(--fill-0, #071A31)"/>
<path id="Vector_24" d="M0.00683594 10.7952H0.452852V13.1738C0.452852 13.3639 0.446293 13.7051 0.433175 13.8952L0.452852 13.9001C0.518442 13.7733 0.669301 13.5004 0.807041 13.2859L2.28283 10.7952H2.78787V14.5581H2.34186V12.082L2.34842 11.4532L2.3353 11.4483C2.28939 11.5361 2.13853 11.8041 2.06638 11.9309L0.498765 14.5581H0.00683594V10.7952Z" fill="var(--fill-0, #071A31)"/>
<path id="Vector_25" d="M6.59839 10.7952V14.5581H6.15237V12.8034H4.3552V14.5581H3.90918V10.7952H4.3552V12.4865H6.15237V10.7952H6.59839Z" fill="var(--fill-0, #071A31)"/>
<path id="Vector_26" d="M9.95637 11.1071H8.84133V14.5581H8.39531V11.1071H7.28027V10.7952H9.95637V11.1071Z" fill="var(--fill-0, #071A31)"/>
<path id="Vector_27" d="M13.0848 14.251V14.5581H10.6514V10.7952H13.0061V11.1022H11.0974V12.4963H12.8814V12.8034H11.0974V14.2559H13.0848V14.251Z" fill="var(--fill-0, #071A31)"/>
<path id="Vector_28" d="M16.3054 10.7952V14.5581H15.8594V11.1071H14.5607C14.4951 12.2964 14.4295 13.3688 14.3443 13.8318C14.2656 14.3095 13.9442 14.6068 13.3735 14.6068V14.29C13.708 14.29 13.8655 14.0804 13.9114 13.7831C13.977 13.3785 14.0622 12.3208 14.1344 10.7952H16.3054Z" fill="var(--fill-0, #071A31)"/>
<path id="Vector_29" d="M19.801 10.7952V14.5581H19.355V11.1071H18.0563C17.9907 12.2964 17.9251 13.3688 17.8399 13.8318C17.7612 14.3095 17.4398 14.6068 16.8691 14.6068V14.29C17.2037 14.29 17.3611 14.0804 17.407 13.7831C17.4726 13.3785 17.5578 12.3208 17.63 10.7952H19.801Z" fill="var(--fill-0, #071A31)"/>
<path id="Vector_30" d="M23.3504 14.251V14.5581H20.917V10.7952H23.2717V11.1022H21.363V12.4963H23.1471V12.8034H21.363V14.2559H23.3504V14.251Z" fill="var(--fill-0, #071A31)"/>
<path id="Vector_31" d="M25.0031 12.7254L24.6423 13.0909V14.5581H24.1963V10.7952H24.6423V12.5889L25.0555 12.1502L26.3477 10.7952H26.9052L25.2917 12.4329L27.1085 14.5532H26.5707L25.0031 12.7254Z" fill="var(--fill-0, #071A31)"/>
<path id="Vector_32" d="M29.9158 11.1071H28.8008V14.5581H28.3548V11.1071H27.2397V10.7952H29.9158V11.1071Z" fill="var(--fill-0, #071A31)"/>
<path id="Vector_33" d="M32.2574 13.6758H30.6504L30.3553 14.5581H29.8765L31.208 10.7952H31.6999L33.0314 14.5581H32.5526L32.2574 13.6758ZM32.1525 13.3736L31.6343 11.8139C31.5556 11.5848 31.4834 11.3118 31.4638 11.2241H31.4441C31.4244 11.3167 31.3523 11.5848 31.2735 11.8139L30.7554 13.3736H32.1525Z" fill="var(--fill-0, #071A31)"/>
</g>
</svg>
