<svg preserveAspectRatio="none" width="100%" height="100%" overflow="visible" style="display: block;" viewBox="0 0 144 48" fill="none" xmlns="http://www.w3.org/2000/svg">
<g id="Group">
<path id="Vector" fill-rule="evenodd" clip-rule="evenodd" d="M37.2661 25.2209L31.9086 14.2139L26.5038 25.2209H37.2661Z" fill="var(--fill-0, white)"/>
<path id="Vector_2" fill-rule="evenodd" clip-rule="evenodd" d="M-1.41314e-05 0.00029608V47.0298H0.0314982L26.1729 0.00029608H-1.41314e-05Z" fill="var(--fill-0, white)"/>
<path id="Vector_3" fill-rule="evenodd" clip-rule="evenodd" d="M117.471 25.2209L112.114 14.2139L106.709 25.2209H117.471Z" fill="var(--fill-0, white)"/>
<path id="Vector_4" fill-rule="evenodd" clip-rule="evenodd" d="M143.943 0.00019455H117.786L143.943 47.0297V0.00019455Z" fill="var(--fill-0, white)"/>
<path id="Vector_5" fill-rule="evenodd" clip-rule="evenodd" d="M101.903 34.0212L94.7489 47.0293H129.336L122.182 34.0212H101.903Z" fill="var(--fill-0, white)"/>
<path id="Vector_6" fill-rule="evenodd" clip-rule="evenodd" d="M21.6977 34.0212L14.5439 47.0293H49.1313L41.9774 34.0212H21.6977Z" fill="var(--fill-0, white)"/>
<path id="Vector_7" fill-rule="evenodd" clip-rule="evenodd" d="M78.9757 0.00019455V6.28371H65.2983V0.00019455H37.5812L63.7383 47.0297H65.2983V10.3508H78.9757V47.0297H80.2363L106.378 0.00019455H78.9757Z" fill="var(--fill-0, white)"/>
</g>
</svg>
