<svg preserveAspectRatio="none" width="100%" height="100%" overflow="visible" style="display: block;" viewBox="0 0 55 41" fill="none" xmlns="http://www.w3.org/2000/svg">
<g id="Group">
<path id="Vector" d="M2.74638 8.24878H0.89272L0.552254 10.7167H-6.06531e-05L1.53583 0.190421H2.10327L3.63916 10.7167H3.08684L2.74638 8.24878ZM2.63289 7.41704L2.03518 3.05379C1.94439 2.41294 1.86116 1.64938 1.83846 1.40395H1.82333C1.80063 1.66301 1.71741 2.41294 1.62662 3.05379L1.02891 7.41704H2.63289Z" fill="var(--fill-0, #071A31)"/>
<path id="Vector_2" d="M7.0363 1.06307H4.89514V10.7167H4.38066V0.190421H7.04387V1.06307H7.0363Z" fill="var(--fill-0, #071A31)"/>
<path id="Vector_3" d="M10.6376 9.85772V10.7167H7.83068V0.190421H10.5468V1.04943H8.34516V4.94908H10.4031V5.8081H8.34516V9.87136H10.6376V9.85772Z" fill="var(--fill-0, #071A31)"/>
<path id="Vector_4" d="M14.7233 0.190421V10.7167H14.2088V5.8081H12.1358V10.7167H11.6213V0.190421H12.1358V4.92181H14.2088V0.190421H14.7233Z" fill="var(--fill-0, #071A31)"/>
<path id="Vector_5" d="M18.6046 1.06307H17.3184V10.7167H16.8039V1.06307H15.5177V0.190421H18.6046V1.06307Z" fill="var(--fill-0, #071A31)"/>
<path id="Vector_6" d="M19.2326 7.74353V3.17577C19.2326 1.14413 19.8757 0.0260452 20.7912 0.0260452C21.7445 0.0260452 22.3498 1.10322 22.4103 3.06668H21.9109C21.8504 1.58045 21.4494 0.871427 20.7912 0.871427C20.1632 0.871427 19.7319 1.62135 19.7319 3.18939V7.75717C19.7319 9.32521 20.1859 10.0751 20.8214 10.0751C21.4872 10.0751 21.8731 9.33884 21.9563 7.87988H22.4557C22.3724 9.80243 21.7823 10.9205 20.8214 10.9205C19.8984 10.8932 19.2326 9.77517 19.2326 7.74353Z" fill="var(--fill-0, #071A31)"/>
<path id="Vector_7" d="M25.9739 1.06307H24.6876V10.7167H24.1732V1.06307H22.887V0.190421H25.9739V1.06307Z" fill="var(--fill-0, #071A31)"/>
<path id="Vector_8" d="M29.9308 7.85392C29.9308 9.73557 29.3028 10.7309 28.2738 10.7309H26.7758V0.204614H28.1452C29.1212 0.204614 29.6962 1.19997 29.6962 2.94527C29.6962 4.25424 29.3936 5.04508 28.9396 5.27688C29.5449 5.52231 29.9308 6.43587 29.9308 7.85392ZM27.2827 1.06362V4.88146H28.1528C28.8261 4.88146 29.159 4.22698 29.159 2.93164C29.159 1.64994 28.8261 1.06362 28.1301 1.06362H27.2827ZM29.4012 7.85392C29.4012 6.49041 28.9094 5.76774 28.1755 5.76774H27.2827V9.85827H28.2663C29.0304 9.84464 29.4012 9.23107 29.4012 7.85392Z" fill="var(--fill-0, #071A31)"/>
<path id="Vector_9" d="M30.7176 7.45811V3.46302C30.7176 1.34957 31.3455 -0.000305451 32.3972 -0.000305451C33.4489 -0.000305451 34.0768 1.33594 34.0768 3.46302V7.45811C34.0768 9.57155 33.4489 10.9214 32.3972 10.9214C31.3455 10.9078 30.7176 9.57155 30.7176 7.45811ZM33.5472 7.45811V3.46302C33.5472 1.84044 33.1538 0.913245 32.3972 0.913245C31.6406 0.913245 31.2472 1.84044 31.2472 3.46302V7.45811C31.2472 9.08069 31.6406 10.0079 32.3972 10.0079C33.1538 10.0079 33.5472 9.08069 33.5472 7.45811Z" fill="var(--fill-0, #071A31)"/>
<path id="Vector_10" d="M0.00764963 15.1739H0.522134V21.8278C0.522134 22.3596 0.514569 23.314 0.499437 23.8458L0.522134 23.8595C0.597793 23.5049 0.771811 22.7414 0.930695 22.1414L2.63303 15.1739H3.21561V25.7002H2.70113V18.7735L2.70869 17.0146L2.69356 17.001C2.6406 17.2464 2.46658 17.9964 2.38336 18.3509L0.575095 25.7002H0.00764963V15.1739Z" fill="var(--fill-0, #071A31)"/>
<path id="Vector_11" d="M4.34281 22.7149V18.1471C4.34281 16.1155 4.98592 14.9974 5.9014 14.9974C6.8547 14.9974 7.45998 16.0746 7.52051 18.038H7.02116C6.96063 16.5518 6.55963 15.8428 5.9014 15.8428C5.27342 15.8428 4.84216 16.5927 4.84216 18.1608V22.7285C4.84216 24.2966 5.29612 25.0465 5.93166 25.0465C6.59746 25.0465 6.98333 24.3102 7.06655 22.8512H7.5659C7.48268 24.7738 6.89253 25.8919 5.93166 25.8919C5.00105 25.8782 4.34281 24.7465 4.34281 22.7149Z" fill="var(--fill-0, #071A31)"/>
<path id="Vector_12" d="M9.43471 20.5734L9.01858 21.596V25.7002H8.5041V15.1739H9.01858V20.1916L9.49524 18.9644L10.9857 15.1739H11.6288L9.76761 19.7553L11.8634 25.6866H11.243L9.43471 20.5734Z" fill="var(--fill-0, #071A31)"/>
<path id="Vector_13" d="M15.1772 15.1737L13.7094 23.8183C13.5127 24.991 13.1495 25.8363 12.4308 25.8363H12.2341V24.9364H12.4308C12.8847 24.9364 13.0966 24.3365 13.2328 23.5184L13.4219 22.4003L11.9314 15.16H12.4837L13.6489 21.064L14.64 15.1737H15.1772Z" fill="var(--fill-0, #071A31)"/>
<path id="Vector_14" d="M15.6615 22.7149V18.1471C15.6615 16.1155 16.3046 14.9974 17.2201 14.9974C18.1734 14.9974 18.7786 16.0746 18.8392 18.038H18.3398C18.2793 16.5518 17.8783 15.8428 17.2201 15.8428C16.5921 15.8428 16.1608 16.5927 16.1608 18.1608V22.7285C16.1608 24.2966 16.6148 25.0465 17.2503 25.0465C17.9161 25.0465 18.302 24.3102 18.3852 22.8512H18.8846C18.8013 24.7738 18.2112 25.8919 17.2503 25.8919C16.3197 25.8782 15.6615 24.7465 15.6615 22.7149Z" fill="var(--fill-0, #071A31)"/>
<path id="Vector_15" d="M19.6638 22.7149V18.1471C19.6638 16.1155 20.3069 14.9974 21.2224 14.9974C22.1757 14.9974 22.781 16.0746 22.8415 18.038H22.3422C22.2816 16.5518 21.8806 15.8428 21.2224 15.8428C20.5944 15.8428 20.1632 16.5927 20.1632 18.1608V22.7285C20.1632 24.2966 20.6171 25.0465 21.2527 25.0465C21.9185 25.0465 22.3043 24.3102 22.3876 22.8512H22.8869C22.8037 24.7738 22.2135 25.8919 21.2527 25.8919C20.3221 25.8782 19.6638 24.7465 19.6638 22.7149Z" fill="var(--fill-0, #071A31)"/>
<path id="Vector_16" d="M26.3975 16.0465H25.1113V25.7002H24.5968V16.0465H23.3106V15.1739H26.3975V16.0465Z" fill="var(--fill-0, #071A31)"/>
<path id="Vector_17" d="M30.3546 22.8232C30.3546 24.7048 29.7266 25.7002 28.6977 25.7002H27.192V15.1739H28.5615C29.5375 15.1739 30.1125 16.1692 30.1125 17.9145C30.1125 19.2235 29.8099 20.0143 29.3559 20.2461C29.9687 20.4916 30.3546 21.4051 30.3546 22.8232ZM27.7065 16.0465V19.8644H28.5766C29.25 19.8644 29.5829 19.2099 29.5829 17.9145C29.5829 16.6328 29.25 16.0465 28.5539 16.0465H27.7065ZM29.825 22.8232C29.825 21.4597 29.3332 20.737 28.5993 20.737H27.7065V24.8275H28.6901C29.4543 24.8275 29.825 24.2003 29.825 22.8232Z" fill="var(--fill-0, #071A31)"/>
<path id="Vector_18" d="M34.0316 24.8412V25.7002H31.2247V15.1739H33.9408V16.0329H31.7391V19.9325H33.7971V20.7916H31.7391V24.8548H34.0316V24.8412Z" fill="var(--fill-0, #071A31)"/>
<path id="Vector_19" d="M38.1171 15.1739V25.7002H37.6026V20.7916H35.5296V25.7002H35.0151V15.1739H35.5296V19.9053H37.6026V15.1739H38.1171Z" fill="var(--fill-0, #071A31)"/>
<path id="Vector_20" d="M42.513 15.1739V25.7002H41.9985V20.7916H39.9255V25.7002H39.411V15.1739H39.9255V19.9053H41.9985V15.1739H42.513Z" fill="var(--fill-0, #071A31)"/>
<path id="Vector_21" d="M43.6404 22.4281V18.4331C43.6404 16.3196 44.2684 14.9697 45.32 14.9697C46.3717 14.9697 46.9997 16.306 46.9997 18.4331V22.4281C46.9997 24.5416 46.3717 25.8915 45.32 25.8915C44.2608 25.8915 43.6404 24.5552 43.6404 22.4281ZM46.4625 22.4281V18.4331C46.4625 16.8105 46.0691 15.8833 45.3125 15.8833C44.5559 15.8833 44.1625 16.8105 44.1625 18.4331V22.4281C44.1625 24.0507 44.5559 24.9779 45.3125 24.9779C46.0766 24.9916 46.4625 24.0507 46.4625 22.4281Z" fill="var(--fill-0, #071A31)"/>
<path id="Vector_22" d="M50.775 16.0465H48.6339V25.7002H48.1194V15.1739H50.7826V16.0465H50.775Z" fill="var(--fill-0, #071A31)"/>
<path id="Vector_23" d="M51.4105 22.4281V18.4331C51.4105 16.3196 52.0384 14.9697 53.0901 14.9697C54.1418 14.9697 54.7697 16.306 54.7697 18.4331V22.4281C54.7697 24.5416 54.1418 25.8915 53.0901 25.8915C52.0384 25.8915 51.4105 24.5552 51.4105 22.4281ZM54.2401 22.4281V18.4331C54.2401 16.8105 53.8467 15.8833 53.0901 15.8833C52.3335 15.8833 51.9401 16.8105 51.9401 18.4331V22.4281C51.9401 24.0507 52.3335 24.9779 53.0901 24.9779C53.8467 24.9916 54.2401 24.0507 54.2401 22.4281Z" fill="var(--fill-0, #071A31)"/>
<path id="Vector_24" d="M0.00764963 30.1975H0.522134V36.8514C0.522134 37.3832 0.514569 38.3377 0.499437 38.8695L0.522134 38.8831C0.597793 38.5286 0.771811 37.765 0.930695 37.1651L2.63303 30.1975H3.21561V40.7238H2.70113V33.7972L2.70869 32.0383L2.69356 32.0246C2.6406 32.27 2.46658 33.02 2.38336 33.3745L0.575095 40.7238H0.00764963V30.1975Z" fill="var(--fill-0, #071A31)"/>
<path id="Vector_25" d="M7.61127 30.1975V40.7238H7.09678V35.8152H5.02372V40.7238H4.50923V30.1975H5.02372V34.9289H7.09678V30.1975H7.61127Z" fill="var(--fill-0, #071A31)"/>
<path id="Vector_26" d="M11.485 31.0702H10.1988V40.7238H9.68435V31.0702H8.39814V30.1975H11.485V31.0702Z" fill="var(--fill-0, #071A31)"/>
<path id="Vector_27" d="M15.094 39.8648V40.7238H12.287V30.1975H15.0032V31.0565H12.8015V34.9562H14.8595V35.8152H12.8015V39.8784H15.094V39.8648Z" fill="var(--fill-0, #071A31)"/>
<path id="Vector_28" d="M18.8089 30.1975V40.7238H18.2944V31.0702H16.7964C16.7207 34.3971 16.6451 37.3969 16.5467 38.6922C16.4559 40.0284 16.0852 40.8602 15.4269 40.8602V39.9739C15.8128 39.9739 15.9944 39.3876 16.0473 38.5558C16.123 37.4241 16.2214 34.4653 16.3046 30.1975H18.8089Z" fill="var(--fill-0, #071A31)"/>
<path id="Vector_29" d="M22.8415 30.1975V40.7238H22.327V31.0702H20.829C20.7533 34.3971 20.6777 37.3969 20.5793 38.6922C20.4885 40.0284 20.1178 40.8602 19.4596 40.8602V39.9739C19.8454 39.9739 20.027 39.3876 20.08 38.5558C20.1556 37.4241 20.254 34.4653 20.3372 30.1975H22.8415Z" fill="var(--fill-0, #071A31)"/>
<path id="Vector_30" d="M26.9348 39.8648V40.7238H24.1278V30.1975H26.844V31.0565H24.6423V34.9562H26.7003V35.8152H24.6423V39.8784H26.9348V39.8648Z" fill="var(--fill-0, #071A31)"/>
<path id="Vector_31" d="M28.8413 35.597L28.4252 36.6197V40.7238H27.9107V30.1975H28.4252V35.2152L28.9018 33.9881L30.3923 30.1975H31.0354L29.1742 34.7789L31.27 40.7102H30.6496L28.8413 35.597Z" fill="var(--fill-0, #071A31)"/>
<path id="Vector_32" d="M34.5082 31.0702H33.222V40.7238H32.7075V31.0702H31.4213V30.1975H34.5082V31.0702Z" fill="var(--fill-0, #071A31)"/>
<path id="Vector_33" d="M37.2092 38.2559H35.3555L35.0151 40.7238H34.4628L35.9986 30.1975H36.5661L38.102 40.7238H37.5497L37.2092 38.2559ZM37.0881 37.4105L36.4904 33.0472C36.3996 32.4064 36.3164 31.6428 36.2937 31.3974H36.271C36.2483 31.6565 36.1651 32.4064 36.0743 33.0472L35.4766 37.4105H37.0881Z" fill="var(--fill-0, #071A31)"/>
</g>
</svg>
