<svg preserveAspectRatio="none" width="100%" height="100%" overflow="visible" style="display: block;" viewBox="0 0 60 22" fill="none" xmlns="http://www.w3.org/2000/svg">
<g id="Group">
<path id="Vector" fill-rule="evenodd" clip-rule="evenodd" d="M15.5121 11.4253L13.282 6.439L11.0322 11.4253H15.5121Z" fill="var(--fill-0, #071A31)"/>
<path id="Vector_2" fill-rule="evenodd" clip-rule="evenodd" d="M-6.11142e-05 0V21.3038H0.013056L10.8945 0H-6.11142e-05Z" fill="var(--fill-0, #071A31)"/>
<path id="Vector_3" fill-rule="evenodd" clip-rule="evenodd" d="M48.8983 11.4253L46.6682 6.439L44.4185 11.4253H48.8983Z" fill="var(--fill-0, #071A31)"/>
<path id="Vector_4" fill-rule="evenodd" clip-rule="evenodd" d="M59.9166 0H49.0286L59.9166 21.3038V0Z" fill="var(--fill-0, #071A31)"/>
<path id="Vector_5" fill-rule="evenodd" clip-rule="evenodd" d="M42.4173 15.4115L39.4395 21.3041H53.8366L50.8588 15.4115H42.4173Z" fill="var(--fill-0, #071A31)"/>
<path id="Vector_6" fill-rule="evenodd" clip-rule="evenodd" d="M9.03201 15.4115L6.0542 21.3041H20.4513L17.4735 15.4115H9.03201Z" fill="var(--fill-0, #071A31)"/>
<path id="Vector_7" fill-rule="evenodd" clip-rule="evenodd" d="M32.8741 0V2.84635H27.1808V0H15.6435L26.5315 21.3038H27.1808V4.68868H32.8741V21.3038H33.3988L44.2803 0H32.8741Z" fill="var(--fill-0, #071A31)"/>
</g>
</svg>
