<svg preserveAspectRatio="none" width="100%" height="100%" overflow="visible" style="display: block;" viewBox="0 0 70 60" fill="none" xmlns="http://www.w3.org/2000/svg">
<g id="Group">
<path id="Vector" fill-rule="evenodd" clip-rule="evenodd" d="M17.8934 31.9603L15.321 18.0116L12.7259 31.9603H17.8934Z" fill="var(--fill-0, #071A31)"/>
<path id="Vector_2" fill-rule="evenodd" clip-rule="evenodd" d="M-1.41314e-05 0.000524401V59.5955H0.0151167L12.567 0.000524401H-1.41314e-05Z" fill="var(--fill-0, #071A31)"/>
<path id="Vector_3" fill-rule="evenodd" clip-rule="evenodd" d="M56.4042 31.9603L53.8317 18.0116L51.2366 31.9603H56.4042Z" fill="var(--fill-0, #071A31)"/>
<path id="Vector_4" fill-rule="evenodd" clip-rule="evenodd" d="M69.1148 0.000418314H56.5554L69.1148 59.5954V0.000418314Z" fill="var(--fill-0, #071A31)"/>
<path id="Vector_5" fill-rule="evenodd" clip-rule="evenodd" d="M48.929 43.1109L45.494 59.5947H62.1013L58.6663 43.1109H48.929Z" fill="var(--fill-0, #071A31)"/>
<path id="Vector_6" fill-rule="evenodd" clip-rule="evenodd" d="M10.4183 43.1109L6.98332 59.5947H23.5906L20.1556 43.1109H10.4183Z" fill="var(--fill-0, #071A31)"/>
<path id="Vector_7" fill-rule="evenodd" clip-rule="evenodd" d="M37.9205 0.000418314V7.96277H31.3532V0.000418314H18.0447L30.6042 59.5954H31.3532V13.1165H37.9205V59.5954H38.5257L51.0776 0.000418314H37.9205Z" fill="var(--fill-0, #071A31)"/>
</g>
</svg>
