<svg preserveAspectRatio="none" width="100%" height="100%" overflow="visible" style="display: block;" viewBox="0 0 115 33" fill="none" xmlns="http://www.w3.org/2000/svg">
<g id="Group">
<path id="Vector" d="M5.71985 6.50873H1.8593L1.15023 8.45619H-6.06531e-05L3.19868 0.149896H4.38048L7.57922 8.45619H6.42893L5.71985 6.50873ZM5.48349 5.85241L4.23866 2.40938C4.04957 1.90368 3.87624 1.30116 3.82897 1.10749H3.79746C3.75019 1.31192 3.57686 1.90368 3.38777 2.40938L2.14294 5.85241H5.48349Z" fill="var(--fill-0, white)"/>
<path id="Vector_2" d="M14.6543 0.8385H10.1949V8.45619H9.12345V0.149896H14.67V0.8385H14.6543Z" fill="var(--fill-0, white)"/>
<path id="Vector_3" d="M22.1547 7.77834V8.45619H16.3087V0.149896H21.9656V0.827738H17.3802V3.90494H21.6662V4.58279H17.3802V7.7891H22.1547V7.77834Z" fill="var(--fill-0, white)"/>
<path id="Vector_4" d="M30.6638 0.149896V8.45619H29.5923V4.58279H25.2747V8.45619H24.2033V0.149896H25.2747V3.88342H29.5923V0.149896H30.6638Z" fill="var(--fill-0, white)"/>
<path id="Vector_5" d="M38.7471 0.8385H36.0684V8.45619H34.9969V0.8385H32.3181V0.149896H38.7471V0.8385Z" fill="var(--fill-0, white)"/>
<path id="Vector_6" d="M40.0551 6.11012V2.50571C40.0551 0.902549 41.3944 0.0202684 43.3011 0.0202684C45.2865 0.0202684 46.5471 0.870268 46.6731 2.41963H45.6332C45.5071 1.24685 44.672 0.687357 43.3011 0.687357C41.9932 0.687357 41.095 1.27912 41.095 2.51646V6.12088C41.095 7.35822 42.0405 7.94998 43.3641 7.94998C44.7507 7.94998 45.5544 7.36897 45.7277 6.21771H46.7677C46.5944 7.73479 45.3653 8.61707 43.3641 8.61707C41.4417 8.59555 40.0551 7.71328 40.0551 6.11012Z" fill="var(--fill-0, white)"/>
<path id="Vector_7" d="M54.0949 0.8385H51.4161V8.45619H50.3446V0.8385H47.6659V0.149896H54.0949V0.8385Z" fill="var(--fill-0, white)"/>
<path id="Vector_8" d="M62.3358 6.19687C62.3358 7.68167 61.028 8.46711 58.885 8.46711H55.765V0.160818H58.6171C60.6498 0.160818 61.8473 0.946252 61.8473 2.32346C61.8473 3.35637 61.217 3.98042 60.2716 4.16333C61.5322 4.357 62.3358 5.07789 62.3358 6.19687ZM56.8208 0.83866V3.85131H58.6328C60.0352 3.85131 60.7286 3.33485 60.7286 2.31271C60.7286 1.30132 60.0352 0.83866 58.5856 0.83866H56.8208ZM61.2328 6.19687C61.2328 5.12092 60.2086 4.55067 58.6801 4.55067H56.8208V7.7785H58.8692C60.4607 7.76774 61.2328 7.28357 61.2328 6.19687Z" fill="var(--fill-0, white)"/>
<path id="Vector_9" d="M63.9745 5.88511V2.73259C63.9745 1.06488 65.2823 -0.000305451 67.4726 -0.000305451C69.6629 -0.000305451 70.9707 1.05412 70.9707 2.73259V5.88511C70.9707 7.55283 69.6629 8.61801 67.4726 8.61801C65.2823 8.60725 63.9745 7.55283 63.9745 5.88511ZM69.8677 5.88511V2.73259C69.8677 1.45222 69.0483 0.720575 67.4726 0.720575C65.8969 0.720575 65.0775 1.45222 65.0775 2.73259V5.88511C65.0775 7.16549 65.8969 7.89712 67.4726 7.89712C69.0483 7.89712 69.8677 7.16549 69.8677 5.88511Z" fill="var(--fill-0, white)"/>
<path id="Vector_10" d="M0.0155188 11.9744H1.08702V17.2251C1.08702 17.6447 1.07126 18.3978 1.03975 18.8174L1.08702 18.8282C1.24459 18.5485 1.60701 17.9459 1.93792 17.4725L5.48332 11.9744H6.69663V20.2807H5.62513V14.8149L5.64089 13.427L5.60937 13.4162C5.49907 13.6099 5.13665 14.2016 4.96332 14.4814L1.19732 20.2807H0.0155188V11.9744Z" fill="var(--fill-0, white)"/>
<path id="Vector_11" d="M9.04463 17.925V14.3206C9.04463 12.7175 10.384 11.8352 12.2906 11.8352C14.2761 11.8352 15.5367 12.6852 15.6627 14.2345H14.6227C14.4967 13.0618 13.6615 12.5023 12.2906 12.5023C10.9828 12.5023 10.0846 13.094 10.0846 14.3314V17.9358C10.0846 19.1731 11.0301 19.7649 12.3537 19.7649C13.7403 19.7649 14.5439 19.1839 14.7173 18.0326H15.7573C15.5839 19.5497 14.3549 20.432 12.3537 20.432C10.4155 20.4212 9.04463 19.5282 9.04463 17.925Z" fill="var(--fill-0, white)"/>
<path id="Vector_12" d="M19.6494 16.2352L18.7827 17.0421V20.2807H17.7112V11.9744H18.7827V15.9339L19.7754 14.9656L22.8796 11.9744H24.219L20.3427 15.5896L24.7075 20.27H23.4154L19.6494 16.2352Z" fill="var(--fill-0, white)"/>
<path id="Vector_13" d="M31.6091 11.9743L28.5521 18.7958C28.1424 19.7211 27.3861 20.3882 25.8891 20.3882H25.4795V19.678H25.8891C26.8346 19.678 27.2758 19.2046 27.5594 18.5591L27.9534 17.6768L24.8492 11.9635H25.9994L28.4261 16.6224L30.4903 11.9743H31.6091Z" fill="var(--fill-0, white)"/>
<path id="Vector_14" d="M32.6176 17.925V14.3206C32.6176 12.7175 33.957 11.8352 35.8636 11.8352C37.8491 11.8352 39.1096 12.6852 39.2357 14.2345H38.1957C38.0697 13.0618 37.2345 12.5023 35.8636 12.5023C34.5558 12.5023 33.6576 13.094 33.6576 14.3314V17.9358C33.6576 19.1731 34.603 19.7649 35.9267 19.7649C37.3133 19.7649 38.1169 19.1839 38.2903 18.0326H39.3302C39.1569 19.5497 37.9278 20.432 35.9267 20.432C33.9885 20.4212 32.6176 19.5282 32.6176 17.925Z" fill="var(--fill-0, white)"/>
<path id="Vector_15" d="M40.9532 17.925V14.3206C40.9532 12.7175 42.2925 11.8352 44.1992 11.8352C46.1846 11.8352 47.4452 12.6852 47.5713 14.2345H46.5313C46.4052 13.0618 45.5701 12.5023 44.1992 12.5023C42.8913 12.5023 41.9932 13.094 41.9932 14.3314V17.9358C41.9932 19.1731 42.9386 19.7649 44.2622 19.7649C45.6489 19.7649 46.4525 19.1839 46.6258 18.0326H47.6658C47.4925 19.5497 46.2634 20.432 44.2622 20.432C42.3241 20.4212 40.9532 19.5282 40.9532 17.925Z" fill="var(--fill-0, white)"/>
<path id="Vector_16" d="M54.9772 12.663H52.2985V20.2807H51.227V12.663H48.5482V11.9744H54.9772V12.663Z" fill="var(--fill-0, white)"/>
<path id="Vector_17" d="M63.2185 18.0105C63.2185 19.4953 61.9107 20.2807 59.7677 20.2807H56.632V11.9744H59.484C61.5167 11.9744 62.7143 12.7599 62.7143 14.1371C62.7143 15.17 62.084 15.794 61.1385 15.977C62.4149 16.1706 63.2185 16.8915 63.2185 18.0105ZM57.7035 12.663V15.6757H59.5155C60.9179 15.6757 61.6113 15.1592 61.6113 14.1371C61.6113 13.1257 60.918 12.663 59.4683 12.663H57.7035ZM62.1155 18.0105C62.1155 16.9345 61.0913 16.3643 59.5628 16.3643H57.7035V19.5921H59.7519C61.3434 19.5921 62.1155 19.0972 62.1155 18.0105Z" fill="var(--fill-0, white)"/>
<path id="Vector_18" d="M70.8765 19.6029V20.2807H65.0306V11.9744H70.6874V12.6523H66.1021V15.7295H70.3881V16.4073H66.1021V19.6136H70.8765V19.6029Z" fill="var(--fill-0, white)"/>
<path id="Vector_19" d="M79.3853 11.9744V20.2807H78.3138V16.4073H73.9963V20.2807H72.9248V11.9744H73.9963V15.708H78.3138V11.9744H79.3853Z" fill="var(--fill-0, white)"/>
<path id="Vector_20" d="M88.5405 11.9744V20.2807H87.469V16.4073H83.1515V20.2807H82.08V11.9744H83.1515V15.708H87.469V11.9744H88.5405Z" fill="var(--fill-0, white)"/>
<path id="Vector_21" d="M90.8884 17.6988V14.5462C90.8884 12.8785 92.1963 11.8133 94.3865 11.8133C96.5768 11.8133 97.8847 12.8678 97.8847 14.5462V17.6988C97.8847 19.3665 96.5768 20.4317 94.3865 20.4317C92.1805 20.4317 90.8884 19.3772 90.8884 17.6988ZM96.7659 17.6988V14.5462C96.7659 13.2659 95.9465 12.5342 94.3708 12.5342C92.795 12.5342 91.9757 13.2659 91.9757 14.5462V17.6988C91.9757 18.9791 92.795 19.7108 94.3708 19.7108C95.9623 19.7215 96.7659 18.9791 96.7659 17.6988Z" fill="var(--fill-0, white)"/>
<path id="Vector_22" d="M105.747 12.663H101.288V20.2807H100.217V11.9744H105.763V12.663H105.747Z" fill="var(--fill-0, white)"/>
<path id="Vector_23" d="M107.071 17.6988V14.5462C107.071 12.8785 108.379 11.8133 110.569 11.8133C112.759 11.8133 114.067 12.8678 114.067 14.5462V17.6988C114.067 19.3665 112.759 20.4317 110.569 20.4317C108.379 20.4317 107.071 19.3772 107.071 17.6988ZM112.964 17.6988V14.5462C112.964 13.2659 112.145 12.5342 110.569 12.5342C108.993 12.5342 108.174 13.2659 108.174 14.5462V17.6988C108.174 18.9791 108.993 19.7108 110.569 19.7108C112.145 19.7215 112.964 18.9791 112.964 17.6988Z" fill="var(--fill-0, white)"/>
<path id="Vector_24" d="M0.0155188 23.8304H1.08702V29.081C1.08702 29.5006 1.07126 30.2538 1.03975 30.6734L1.08702 30.6841C1.24459 30.4044 1.60701 29.8019 1.93792 29.3285L5.48332 23.8304H6.69663V32.1367H5.62513V26.6709L5.64089 25.2829L5.60937 25.2721C5.49907 25.4658 5.13665 26.0576 4.96332 26.3373L1.19732 32.1367H0.0155188V23.8304Z" fill="var(--fill-0, white)"/>
<path id="Vector_25" d="M15.8517 23.8304V32.1367H14.7802V28.2633H10.4627V32.1367H9.39123V23.8304H10.4627V27.5639H14.7802V23.8304H15.8517Z" fill="var(--fill-0, white)"/>
<path id="Vector_26" d="M23.9195 24.519H21.2408V32.1367H20.1693V24.519H17.4905V23.8304H23.9195V24.519Z" fill="var(--fill-0, white)"/>
<path id="Vector_27" d="M31.4358 31.4588V32.1367H25.5898V23.8304H31.2467V24.5082H26.6613V27.5854H30.9473V28.2633H26.6613V31.4696H31.4358V31.4588Z" fill="var(--fill-0, white)"/>
<path id="Vector_28" d="M39.1727 23.8304V32.1367H38.1012V24.519H34.9812C34.8237 27.1443 34.6661 29.5114 34.4612 30.5335C34.2722 31.5879 33.5 32.2443 32.1292 32.2443V31.5449C32.9328 31.5449 33.311 31.0823 33.4213 30.4259C33.5788 29.5329 33.7837 27.1981 33.957 23.8304H39.1727Z" fill="var(--fill-0, white)"/>
<path id="Vector_29" d="M47.5713 23.8304V32.1367H46.4998V24.519H43.3798C43.2223 27.1443 43.0647 29.5114 42.8598 30.5335C42.6708 31.5879 41.8986 32.2443 40.5278 32.2443V31.5449C41.3314 31.5449 41.7096 31.0823 41.8199 30.4259C41.9774 29.5329 42.1823 27.1981 42.3556 23.8304H47.5713Z" fill="var(--fill-0, white)"/>
<path id="Vector_30" d="M56.0962 31.4588V32.1367H50.2503V23.8304H55.9071V24.5082H51.3218V27.5854H55.6077V28.2633H51.3218V31.4696H56.0962V31.4588Z" fill="var(--fill-0, white)"/>
<path id="Vector_31" d="M60.0668 28.0911L59.2002 28.8981V32.1367H58.1287V23.8304H59.2002V27.7899L60.1929 26.8215L63.2971 23.8304H64.6365L60.7602 27.4456L65.1249 32.1259H63.8328L60.0668 28.0911Z" fill="var(--fill-0, white)"/>
<path id="Vector_32" d="M71.869 24.519H69.1903V32.1367H68.1188V24.519H65.44V23.8304H71.869V24.519Z" fill="var(--fill-0, white)"/>
<path id="Vector_33" d="M77.4944 30.1892H73.6338L72.9247 32.1367H71.7744L74.9732 23.8304H76.155L79.3537 32.1367H78.2034L77.4944 30.1892ZM77.2422 29.5221L75.9974 26.0791C75.8083 25.5734 75.635 24.9709 75.5877 24.7772H75.5405C75.4932 24.9816 75.3198 25.5734 75.1308 26.0791L73.8859 29.5221H77.2422Z" fill="var(--fill-0, white)"/>
</g>
</svg>
