<svg preserveAspectRatio="none" width="100%" height="100%" overflow="visible" style="display: block;" viewBox="0 0 144 60" fill="none" xmlns="http://www.w3.org/2000/svg">
<g id="Group">
<path id="Vector" fill-rule="evenodd" clip-rule="evenodd" d="M37.2661 31.9105L31.9086 17.9835L26.5038 31.9105H37.2661Z" fill="var(--fill-0, #071A31)"/>
<path id="Vector_2" fill-rule="evenodd" clip-rule="evenodd" d="M-1.41314e-05 0.000524401V59.5025H0.0314982L26.1729 0.000524401H-1.41314e-05Z" fill="var(--fill-0, #071A31)"/>
<path id="Vector_3" fill-rule="evenodd" clip-rule="evenodd" d="M117.471 31.9105L112.114 17.9835L106.709 31.9105H117.471Z" fill="var(--fill-0, #071A31)"/>
<path id="Vector_4" fill-rule="evenodd" clip-rule="evenodd" d="M143.943 0.000418314H117.786L143.943 59.5024V0.000418314Z" fill="var(--fill-0, #071A31)"/>
<path id="Vector_5" fill-rule="evenodd" clip-rule="evenodd" d="M101.903 43.0437L94.7489 59.5017H129.336L122.182 43.0437H101.903Z" fill="var(--fill-0, #071A31)"/>
<path id="Vector_6" fill-rule="evenodd" clip-rule="evenodd" d="M21.6977 43.0437L14.5439 59.5017H49.1313L41.9774 43.0437H21.6977Z" fill="var(--fill-0, #071A31)"/>
<path id="Vector_7" fill-rule="evenodd" clip-rule="evenodd" d="M78.9757 0.000418314V7.95036H65.2983V0.000418314H37.5812L63.7383 59.5024H65.2983V13.096H78.9757V59.5024H80.2363L106.378 0.000418314H78.9757Z" fill="var(--fill-0, #071A31)"/>
</g>
</svg>
