<svg preserveAspectRatio="none" width="100%" height="100%" overflow="visible" style="display: block;" viewBox="0 0 144 61" fill="none" xmlns="http://www.w3.org/2000/svg">
<g id="Group">
<path id="Vector" fill-rule="evenodd" clip-rule="evenodd" d="M37.2661 32.5205L31.9086 18.3273L26.5038 32.5205H37.2661Z" fill="var(--fill-0, #071A31)"/>
<path id="Vector_2" fill-rule="evenodd" clip-rule="evenodd" d="M-1.41314e-05 0.000524401V60.64H0.0314982L26.1729 0.000524401H-1.41314e-05Z" fill="var(--fill-0, #071A31)"/>
<path id="Vector_3" fill-rule="evenodd" clip-rule="evenodd" d="M117.471 32.5205L112.114 18.3273L106.709 32.5205H117.471Z" fill="var(--fill-0, #071A31)"/>
<path id="Vector_4" fill-rule="evenodd" clip-rule="evenodd" d="M143.943 0.000418314H117.786L143.943 60.6399V0.000418314Z" fill="var(--fill-0, #071A31)"/>
<path id="Vector_5" fill-rule="evenodd" clip-rule="evenodd" d="M101.903 43.8666L94.7489 60.6392H129.336L122.182 43.8666H101.903Z" fill="var(--fill-0, #071A31)"/>
<path id="Vector_6" fill-rule="evenodd" clip-rule="evenodd" d="M21.6977 43.8666L14.5439 60.6392H49.1313L41.9774 43.8666H21.6977Z" fill="var(--fill-0, #071A31)"/>
<path id="Vector_7" fill-rule="evenodd" clip-rule="evenodd" d="M78.9757 0.000418314V8.10233H65.2983V0.000418314H37.5812L63.7383 60.6399H65.2983V13.3464H78.9757V60.6399H80.2363L106.378 0.000418314H78.9757Z" fill="var(--fill-0, #071A31)"/>
</g>
</svg>
