<svg preserveAspectRatio="none" width="100%" height="100%" overflow="visible" style="display: block;" viewBox="0 0 115 41" fill="none" xmlns="http://www.w3.org/2000/svg">
<g id="Group">
<path id="Vector" d="M5.71985 8.23592H1.8593L1.15023 10.7H-6.06531e-05L3.19868 0.190127H4.38048L7.57922 10.7H6.42893L5.71985 8.23592ZM5.48349 7.40548L4.23866 3.04904C4.04957 2.40918 3.87624 1.64681 3.82897 1.40176H3.79746C3.75019 1.66042 3.57686 2.40918 3.38777 3.04904L2.14294 7.40548H5.48349Z" fill="var(--fill-0, #071A31)"/>
<path id="Vector_2" d="M14.6543 1.06141H10.1949V10.7H9.12345V0.190127H14.67V1.06141H14.6543Z" fill="var(--fill-0, #071A31)"/>
<path id="Vector_3" d="M22.1547 9.84235V10.7H16.3087V0.190127H21.9656V1.0478H17.3802V4.94136H21.6662V5.79904H17.3802V9.85597H22.1547V9.84235Z" fill="var(--fill-0, #071A31)"/>
<path id="Vector_4" d="M30.6638 0.190127V10.7H29.5923V5.79904H25.2747V10.7H24.2033V0.190127H25.2747V4.91414H29.5923V0.190127H30.6638Z" fill="var(--fill-0, #071A31)"/>
<path id="Vector_5" d="M38.7471 1.06141H36.0684V10.7H34.9969V1.06141H32.3181V0.190127H38.7471V1.06141Z" fill="var(--fill-0, #071A31)"/>
<path id="Vector_6" d="M40.0551 7.7315V3.17085C40.0551 1.14239 41.3944 0.0260452 43.3011 0.0260452C45.2865 0.0260452 46.5471 1.10154 46.6731 3.06194H45.6332C45.5071 1.57803 44.672 0.870108 43.3011 0.870108C41.9932 0.870108 41.095 1.61887 41.095 3.18446V7.74511C41.095 9.31071 42.0405 10.0595 43.3641 10.0595C44.7507 10.0595 45.5544 9.32432 45.7277 7.86763H46.7677C46.5944 9.78719 45.3653 10.9035 43.3641 10.9035C41.4417 10.8763 40.0551 9.75996 40.0551 7.7315Z" fill="var(--fill-0, #071A31)"/>
<path id="Vector_7" d="M54.0949 1.06141H51.4161V10.7H50.3446V1.06141H47.6659V0.190127H54.0949V1.06141Z" fill="var(--fill-0, #071A31)"/>
<path id="Vector_8" d="M62.3358 7.84168C62.3358 9.72039 61.028 10.7142 58.885 10.7142H55.765V0.204298H58.6171C60.6498 0.204298 61.8473 1.1981 61.8473 2.94068C61.8473 4.24761 61.217 5.03722 60.2716 5.26866C61.5322 5.51371 62.3358 6.42583 62.3358 7.84168ZM56.8208 1.06197V4.87385H58.6328C60.0352 4.87385 60.7286 4.22039 60.7286 2.92707C60.7286 1.64737 60.0352 1.06197 58.5856 1.06197H56.8208ZM61.2328 7.84168C61.2328 6.48029 60.2086 5.75875 58.6801 5.75875H56.8208V9.8429H58.8692C60.4607 9.82929 61.2328 9.21668 61.2328 7.84168Z" fill="var(--fill-0, #071A31)"/>
<path id="Vector_9" d="M63.9745 7.44648V3.45762C63.9745 1.34747 65.2823 -0.000305451 67.4726 -0.000305451C69.6629 -0.000305451 70.9707 1.33385 70.9707 3.45762V7.44648C70.9707 9.55663 69.6629 10.9044 67.4726 10.9044C65.2823 10.8908 63.9745 9.55663 63.9745 7.44648ZM69.8677 7.44648V3.45762C69.8677 1.83757 69.0483 0.911821 67.4726 0.911821C65.8969 0.911821 65.0775 1.83757 65.0775 3.45762V7.44648C65.0775 9.06653 65.8969 9.99226 67.4726 9.99226C69.0483 9.99226 69.8677 9.06653 69.8677 7.44648Z" fill="var(--fill-0, #071A31)"/>
<path id="Vector_10" d="M0.0155188 15.1502H1.08702V21.7938C1.08702 22.3247 1.07126 23.2777 1.03975 23.8086L1.08702 23.8223C1.24459 23.4683 1.60701 22.7059 1.93792 22.1069L5.48332 15.1502H6.69663V25.6601H5.62513V18.7443L5.64089 16.9881L5.60937 16.9745C5.49907 17.2195 5.13665 17.9683 4.96332 18.3223L1.19732 25.6601H0.0155188V15.1502Z" fill="var(--fill-0, #071A31)"/>
<path id="Vector_11" d="M9.04463 22.6795V18.1188C9.04463 16.0904 10.384 14.974 12.2906 14.974C14.2761 14.974 15.5367 16.0495 15.6627 18.0099H14.6227C14.4967 16.526 13.6615 15.8181 12.2906 15.8181C10.9828 15.8181 10.0846 16.5669 10.0846 18.1324V22.6931C10.0846 24.2587 11.0301 25.0075 12.3537 25.0075C13.7403 25.0075 14.5439 24.2723 14.7173 22.8156H15.7573C15.5839 24.7352 14.3549 25.8515 12.3537 25.8515C10.4155 25.8379 9.04463 24.7079 9.04463 22.6795Z" fill="var(--fill-0, #071A31)"/>
<path id="Vector_12" d="M19.6494 20.5413L18.7827 21.5623V25.6601H17.7112V15.1502H18.7827V20.1601L19.7754 18.9349L22.8796 15.1502H24.219L20.3427 19.7245L24.7075 25.6465H23.4154L19.6494 20.5413Z" fill="var(--fill-0, #071A31)"/>
<path id="Vector_13" d="M31.6091 15.15L28.5521 23.7812C28.1424 24.952 27.3861 25.796 25.8891 25.796H25.4795V24.8975H25.8891C26.8346 24.8975 27.2758 24.2985 27.5594 23.4817L27.9534 22.3654L24.8492 15.1364H25.9994L28.4261 21.0312L30.4903 15.15H31.6091Z" fill="var(--fill-0, #071A31)"/>
<path id="Vector_14" d="M32.6176 22.6795V18.1188C32.6176 16.0904 33.957 14.974 35.8636 14.974C37.8491 14.974 39.1096 16.0495 39.2357 18.0099H38.1957C38.0697 16.526 37.2345 15.8181 35.8636 15.8181C34.5558 15.8181 33.6576 16.5669 33.6576 18.1324V22.6931C33.6576 24.2587 34.603 25.0075 35.9267 25.0075C37.3133 25.0075 38.1169 24.2723 38.2903 22.8156H39.3302C39.1569 24.7352 37.9278 25.8515 35.9267 25.8515C33.9885 25.8379 32.6176 24.7079 32.6176 22.6795Z" fill="var(--fill-0, #071A31)"/>
<path id="Vector_15" d="M40.9532 22.6795V18.1188C40.9532 16.0904 42.2925 14.974 44.1992 14.974C46.1846 14.974 47.4452 16.0495 47.5713 18.0099H46.5313C46.4052 16.526 45.5701 15.8181 44.1992 15.8181C42.8913 15.8181 41.9932 16.5669 41.9932 18.1324V22.6931C41.9932 24.2587 42.9386 25.0075 44.2622 25.0075C45.6489 25.0075 46.4525 24.2723 46.6258 22.8156H47.6658C47.4925 24.7352 46.2634 25.8515 44.2622 25.8515C42.3241 25.8379 40.9532 24.7079 40.9532 22.6795Z" fill="var(--fill-0, #071A31)"/>
<path id="Vector_16" d="M54.9772 16.0215H52.2985V25.6601H51.227V16.0215H48.5482V15.1502H54.9772V16.0215Z" fill="var(--fill-0, #071A31)"/>
<path id="Vector_17" d="M63.2185 22.7876C63.2185 24.6663 61.9107 25.6601 59.7677 25.6601H56.632V15.1502H59.484C61.5167 15.1502 62.7143 16.144 62.7143 17.8866C62.7143 19.1935 62.084 19.9831 61.1385 20.2146C62.4149 20.4596 63.2185 21.3718 63.2185 22.7876ZM57.7035 16.0215V19.8334H59.5155C60.9179 19.8334 61.6113 19.1799 61.6113 17.8866C61.6113 16.6069 60.918 16.0215 59.4683 16.0215H57.7035ZM62.1155 22.7876C62.1155 21.4262 61.0913 20.7047 59.5628 20.7047H57.7035V24.7888H59.7519C61.3434 24.7888 62.1155 24.1626 62.1155 22.7876Z" fill="var(--fill-0, #071A31)"/>
<path id="Vector_18" d="M70.8765 24.8025V25.6601H65.0306V15.1502H70.6874V16.0079H66.1021V19.9015H70.3881V20.7591H66.1021V24.8161H70.8765V24.8025Z" fill="var(--fill-0, #071A31)"/>
<path id="Vector_19" d="M79.3853 15.1502V25.6601H78.3138V20.7591H73.9963V25.6601H72.9248V15.1502H73.9963V19.8742H78.3138V15.1502H79.3853Z" fill="var(--fill-0, #071A31)"/>
<path id="Vector_20" d="M88.5405 15.1502V25.6601H87.469V20.7591H83.1515V25.6601H82.08V15.1502H83.1515V19.8742H87.469V15.1502H88.5405Z" fill="var(--fill-0, #071A31)"/>
<path id="Vector_21" d="M90.8884 22.3932V18.4043C90.8884 16.2942 92.1963 14.9464 94.3865 14.9464C96.5768 14.9464 97.8847 16.2805 97.8847 18.4043V22.3932C97.8847 24.5033 96.5768 25.8511 94.3865 25.8511C92.1805 25.8511 90.8884 24.5169 90.8884 22.3932ZM96.7659 22.3932V18.4043C96.7659 16.7843 95.9465 15.8585 94.3708 15.8585C92.795 15.8585 91.9757 16.7843 91.9757 18.4043V22.3932C91.9757 24.0132 92.795 24.939 94.3708 24.939C95.9623 24.9526 96.7659 24.0132 96.7659 22.3932Z" fill="var(--fill-0, #071A31)"/>
<path id="Vector_22" d="M105.747 16.0215H101.288V25.6601H100.217V15.1502H105.763V16.0215H105.747Z" fill="var(--fill-0, #071A31)"/>
<path id="Vector_23" d="M107.071 22.3932V18.4043C107.071 16.2942 108.379 14.9464 110.569 14.9464C112.759 14.9464 114.067 16.2805 114.067 18.4043V22.3932C114.067 24.5033 112.759 25.8511 110.569 25.8511C108.379 25.8511 107.071 24.5169 107.071 22.3932ZM112.964 22.3932V18.4043C112.964 16.7843 112.145 15.8585 110.569 15.8585C108.993 15.8585 108.174 16.7843 108.174 18.4043V22.3932C108.174 24.0132 108.993 24.939 110.569 24.939C112.145 24.9526 112.964 24.0132 112.964 22.3932Z" fill="var(--fill-0, #071A31)"/>
<path id="Vector_24" d="M0.0155188 30.1504H1.08702V36.794C1.08702 37.3249 1.07126 38.2779 1.03975 38.8088L1.08702 38.8224C1.24459 38.4685 1.60701 37.7061 1.93792 37.1071L5.48332 30.1504H6.69663V40.6603H5.62513V33.7445L5.64089 31.9883L5.60937 31.9747C5.49907 32.2197 5.13665 32.9685 4.96332 33.3224L1.19732 40.6603H0.0155188V30.1504Z" fill="var(--fill-0, #071A31)"/>
<path id="Vector_25" d="M15.8517 30.1504V40.6603H14.7802V35.7593H10.4627V40.6603H9.39123V30.1504H10.4627V34.8744H14.7802V30.1504H15.8517Z" fill="var(--fill-0, #071A31)"/>
<path id="Vector_26" d="M23.9195 31.0217H21.2408V40.6603H20.1693V31.0217H17.4905V30.1504H23.9195V31.0217Z" fill="var(--fill-0, #071A31)"/>
<path id="Vector_27" d="M31.4358 39.8026V40.6603H25.5898V30.1504H31.2467V31.0081H26.6613V34.9017H30.9473V35.7593H26.6613V39.8163H31.4358V39.8026Z" fill="var(--fill-0, #071A31)"/>
<path id="Vector_28" d="M39.1727 30.1504V40.6603H38.1012V31.0217H34.9812C34.8237 34.3435 34.6661 37.3385 34.4612 38.6319C34.2722 39.966 33.5 40.7965 32.1292 40.7965V39.9116C32.9328 39.9116 33.311 39.3262 33.4213 38.4957C33.5788 37.3658 33.7837 34.4116 33.957 30.1504H39.1727Z" fill="var(--fill-0, #071A31)"/>
<path id="Vector_29" d="M47.5713 30.1504V40.6603H46.4998V31.0217H43.3798C43.2223 34.3435 43.0647 37.3385 42.8598 38.6319C42.6708 39.966 41.8986 40.7965 40.5278 40.7965V39.9116C41.3314 39.9116 41.7096 39.3262 41.8199 38.4957C41.9774 37.3658 42.1823 34.4116 42.3556 30.1504H47.5713Z" fill="var(--fill-0, #071A31)"/>
<path id="Vector_30" d="M56.0962 39.8026V40.6603H50.2503V30.1504H55.9071V31.0081H51.3218V34.9017H55.6077V35.7593H51.3218V39.8163H56.0962V39.8026Z" fill="var(--fill-0, #071A31)"/>
<path id="Vector_31" d="M60.0668 35.5415L59.2002 36.5626V40.6603H58.1287V30.1504H59.2002V35.1603L60.1929 33.9351L63.2971 30.1504H64.6365L60.7602 34.7247L65.1249 40.6467H63.8328L60.0668 35.5415Z" fill="var(--fill-0, #071A31)"/>
<path id="Vector_32" d="M71.869 31.0217H69.1903V40.6603H68.1188V31.0217H65.44V30.1504H71.869V31.0217Z" fill="var(--fill-0, #071A31)"/>
<path id="Vector_33" d="M77.4944 38.1962H73.6338L72.9247 40.6603H71.7744L74.9732 30.1504H76.155L79.3537 40.6603H78.2034L77.4944 38.1962ZM77.2422 37.3522L75.9974 32.9957C75.8083 32.3559 75.635 31.5935 75.5877 31.3484H75.5405C75.4932 31.6071 75.3198 32.3559 75.1308 32.9957L73.8859 37.3522H77.2422Z" fill="var(--fill-0, #071A31)"/>
</g>
</svg>
