<?xml version="1.0" encoding="UTF-8"?> <!-- Generator: Adobe Illustrator 20.1.0, SVG Export Plug-In . SVG Version: 6.00 Build 0) --> <svg xmlns="http://www.w3.org/2000/svg" xmlns:xlink="http://www.w3.org/1999/xlink" id="print" x="0px" y="0px" viewBox="0 0 193.9 147.2" style="enable-background:new 0 0 193.9 147.2;" xml:space="preserve"> <style type="text/css"> .st0{fill:#B3965A;} </style> <g> <path class="st0" d="M113.5,107.4c-1.2,1.5-2.4,3-3.6,4.4c-1.9,2.1-3.9,4.1-6.4,5.5c-0.5,0.3-1.1,0.5-1.6,0.7 c-1,0.3-1.6-0.2-1.5-1.3c0.2-0.8,0.5-1.6,0.9-2.3c1.3-2.1,2.7-4.1,4-6.1c1.1-1.6,2.2-3.1,3.4-4.8c-1.1,0.1-2,0.1-2.9,0.2 c-0.2,0-0.5,0.3-0.6,0.5c-0.8,1.1-1.5,2.3-2.2,3.5c-2.1,3.1-4.3,6.2-7.3,8.6c-0.9,0.7-1.9,1.2-2.9,1.6c-0.5,0.2-1.2,0.1-1.6-0.2 c-0.6-0.4-0.5-1.1-0.2-1.7c0.4-0.8,0.8-1.6,1.3-2.3c2.2-3.2,4.5-6.4,6.8-9.5c0.1-0.2,0.2-0.3,0.4-0.6c-0.8,0.1-1.5,0.2-2.2,0.2 s-1.1,0.3-1.5,0.8c-2.5,3.8-5.3,7.4-8.8,10.4c-1.4,1.2-2.9,2.4-4.8,2.9c-1,0.3-1.6-0.3-1.3-1.3c0.2-0.6,0.5-1.3,0.8-1.8 c2.3-3.5,4.6-7,6.9-10.5c0.2-0.2,0.3-0.5,0.5-0.8c-0.8,0-1.5,0.1-2.2,0.1c-0.6,0-0.9,0.2-1.2,0.8c-1.2,2.2-2.7,4.3-4.6,6 c-1.2,1.1-2.5,1.9-4,2.2c0-0.9,0-1.8,0-2.7c-0.1-0.7-0.5-1.3-1.2-1.4c-0.5,0-1.1,0.2-1.4,0.6c-0.7,0.8-0.8,2.7,0,3.4 c0.7,0.7,0.4,1.2,0.1,1.8c-0.9,1.6-2,3-3.8,3.7c-1.4,0.6-2.6-0.2-2.5-1.7c0-0.8,0.2-1.6,0.5-2.2c1.3-2.3,2.7-4.5,4.1-6.7 c0.8-1.3,1.8-2.4,2.7-3.7c-0.7,0-1.3,0-1.9,0c-0.7-0.1-1.1,0.2-1.6,0.8c-2.8,4.1-5.8,8.1-9.7,11.2c-1.1,0.9-2.4,1.6-3.8,2.3 c-1.1,0.5-1.9-0.3-1.6-1.4c0.2-0.7,0.5-1.5,0.9-2.1c1.5-2.3,3-4.6,4.6-6.8c0.9-1.3,1.9-2.6,2.9-4c-1,0.1-1.8,0.1-2.5,0.1 c-0.5,0-0.8,0.2-1,0.6c-1.2,1.8-2.3,3.7-3.5,5.5c-1.8,2.6-3.7,5.1-6.1,7c-1.1,0.9-2.3,1.6-3.8,1.6c-0.9,0-1.7-0.5-2.1-1.3 c-0.3-0.6-0.3-1.2,0.2-1.8c1,0.7,1.7,0.7,2.2,0.1c0.2-0.3,0.4-0.6,0.4-0.9c0-0.2-0.1-0.4-0.2-0.6c-0.2-0.4-0.6-0.8-1.1-0.8 c-0.1,0-0.2,0-0.3,0c-1.3,0.1-2,0.7-2.3,2.1c0,0.2-0.1,0.5-0.3,0.6c-1.4,1.1-3,1.9-4.7,2.3c-2.2,0.5-3.5-0.6-3.4-2.8 c0.1-1.1,0.5-2.2,0.7-3.4c0.1-0.6,0.5-0.8,1.1-1c2.3-0.9,4.6-1.8,6.9-2.8c1.1-0.5,2.1-1.2,2.8-2.3c0.7-1.2,0.2-2.4-1.2-2.5 c-1-0.1-2.1,0-3.1,0.3c-3.6,1.1-6.2,3.6-8.2,6.8c-1.1,1.8-1.8,3.6-1.6,5.8c0.1,1.5,1.2,2.7,2.6,2.8c0.8,0.1,1.7,0,2.5-0.1 c2.1-0.4,4-1.5,5.8-2.7c1.2,2.7,2.9,3.4,5.4,2.1c1.4-0.7,2.5-1.9,3.7-2.9c0.4-0.3,0.7-0.7,1-1.1c0,0.4-0.2,0.8-0.3,1.2 c-0.5,1.8,0.6,3.3,2.4,3.1c1.1-0.1,2.3-0.5,3.1-1.1c1.9-1.4,3.6-3,5.3-4.5c0.3-0.3,0.6-0.6,1-1.1c-0.3,1-0.5,1.7-0.7,2.4 c-0.6,2.9,1.5,4.9,4.4,4.2c2.7-0.7,4.7-2.3,5.9-4.8c0.1-0.2,0.2-0.5,0.4-0.5c1.6-0.4,3-1.2,4.3-2.2c-0.1,0.3-0.4,0.6-0.5,0.9 c-0.6,1.2-1.3,2.5-1.7,3.8c-0.6,2,0.9,3.4,2.9,2.9c1.9-0.5,3.4-1.6,4.8-2.9s2.8-2.7,4.1-4c-0.1,0.3-0.3,0.6-0.5,0.9 c-0.5,0.9-1.2,1.8-1.6,2.8c-0.8,2.4,0.5,3.9,3,3.5c1.4-0.2,2.6-0.8,3.6-1.7c1.3-1.1,2.5-2.3,3.5-3.3c-0.2,0.5-0.5,1.3-0.7,2.1 c-0.3,1.5,0.7,2.7,2.3,2.8c1.6,0.1,2.9-0.7,4.1-1.6c2.8-1.9,5-4.4,7.1-7.1C112.2,109.3,112.9,108.4,113.5,107.4 c-0.1,0.1-0.1,0-0.2,0C113.7,107.2,113.6,107.3,113.5,107.4z M43.6,104.2c0.4-0.2,0.8-0.5,1.2-0.5c0.5,0,1.1,0,1.4,0.2 c0.3,0.2,0.3,0.9,0.2,1.3c-0.1,0.5-0.4,1-0.8,1.4c-2,2.2-4.6,3.1-7.5,4.1C39.6,108.1,41.2,105.8,43.6,104.2z"></path> <path class="st0" d="M27.8,103.2c-2.2-0.3-4.2,0.1-6.1,1.4c1.9-3.3,3.8-6.5,6.3-9.3c2.1-2.3,4.6-3.5,7.8-3.3 c1.2,0.1,2.4-0.1,3.5-0.3c0.7-0.1,1.4-0.3,1.3-1.2c0-0.6-0.7-0.8-1.7-0.8c-1.6,0-3.3,0.1-4.9,0c-5-0.3-10-0.3-15,0.5 c-3.1,0.5-6.2,1.3-8.8,3.2c-3,2.1-5.1,4.8-4.8,8.8c0.2,2.5,1.9,4.6,4.2,5c2.1,0.3,4.1-0.1,5.7-1.6c2.6-2.3,3.4-5.3,3.4-8.6 c0-0.2-0.1-0.3-0.2-0.5c-0.2,0.2-0.2,0.4-0.3,0.7c-0.1,0.8-0.1,1.6-0.2,2.3c-0.4,2.3-1.3,4.3-3.3,5.7c-2.1,1.5-5.1,1.6-7,0.1 s-2.6-4.4-1.5-6.8c1.2-2.8,3.6-4.3,6.3-5.2c2.7-1,5.5-1.3,8.4-1.4c3.6-0.1,7.2,0,10.9,0c-0.3,0.1-0.5,0.2-0.8,0.3 c-2.8,0.9-5.3,2.5-7.1,4.8c-1.8,2.2-3.4,4.6-4.9,7c-2.3,3.6-4.3,7.5-7.1,10.8c-1.8,2.1-3.8,3.7-6.7,3.9c-1.6,0.1-2.9-0.5-3.2-1.4 c0.5-0.5,1-0.8,1.2-1.3c0.1-0.4-0.1-1.1-0.4-1.3c-0.5-0.3-1.2-0.4-1.7-0.3c-0.7,0.1-1.1,0.7-1.1,1.4c-0.1,1.2,0.5,1.9,1.5,2.5 c1.3,0.8,2.8,0.9,4.3,0.8c3.3-0.3,6-1.9,8.3-4.1c2.4-2.3,4.3-5,6-7.9c1.1-1.9,2.8-3.1,5-3.4s3.8,0.6,4.2,2.8 c0.6,3.7-0.3,6.9-2.7,9.8c-1.1,1.3-2.5,2.1-4.2,2.2c-2.4,0.1-3.8-1.3-3.4-3.6c0.1-0.7,0.6-1.4,1-2.1c-1-0.8-2.6-0.4-3.3,1 c-0.6,1.2-0.3,2.7,0.6,3.7c1.1,1.1,2.4,1.4,3.9,1.5c6.2,0.2,11.2-4.9,10.8-11.1C32.1,105.2,30.4,103.5,27.8,103.2z"></path> <path class="st0" d="M193.7,107c-3.8,4-7.9,7.5-13.3,9.1c1-1.2,2-2.3,2.9-3.6c2.7-3.7,4.6-7.9,6.3-12.1c1-2.6,1.5-5.3,1.2-8.1 c-0.2-2.1-1.2-3.5-2.9-3.6c-2.5-0.2-4.7,0.6-6.6,2.1c-0.1,0.1-0.1,0.3-0.2,0.4c1.3-0.5,2.5-1.1,3.8-1.5c1.7-0.5,3.2,0.5,3.5,2.3 c0.2,0.9,0.2,1.9,0.1,2.8c-0.4,3.5-1.5,6.7-2.9,9.9c-0.1,0.2-0.2,0.3-0.3,0.6c-0.4-1.6-1-2.2-2.2-2.3c-0.5,0-1.1,0.1-1.7,0.2 c-2.7,0.7-5,2.3-6.9,4.3c-1.5,1.6-2.6,3.5-4.1,5.1c-1.6,1.7-3.4,3.3-5.2,4.8c-0.6,0.5-1.4,0.7-2.1,0.9c-1,0.2-1.5-0.4-1.2-1.4 c0.2-0.6,0.4-1.2,0.7-1.7c1.6-2.7,3.3-5.4,5-8.1c0.7-1.1,1.5-2.2,2.4-3.3c-0.8,0-1.6-0.1-2.3,0c-0.3,0-0.7,0.3-0.9,0.6 c-0.4,0.6-0.8,1.2-1.2,1.8c-0.1-0.1-0.1-0.2-0.2-0.3c-0.7-2.1-1.9-2.8-4-2.4c-3,0.6-5.4,2.4-7.4,4.6c-1.7,2-3.2,4.2-3.5,6.8 c-0.3,2,0.8,3.6,2.6,3.6c0.6,0,1.3-0.1,1.9-0.3c2.3-0.8,4-2.4,5.5-4.2c0.1-0.1,0.2-0.4,0.3-0.5c0.1,0.1,0.1,0.1,0.2,0.2 c-0.3,0.7-0.7,1.4-0.9,2.1c-0.5,1.4,0.3,2.6,1.8,2.9c1.1,0.2,2.1-0.3,3-0.8c2.1-1.2,3.8-2.9,5.4-4.7c0.3-0.3,0.6-0.7,0.9-1 c-0.1,1.1-0.2,2.2-0.2,3.3c0.1,1.9,1.3,3.1,3.2,3.2c1.6,0.1,2.9-0.6,4.1-1.3c0.5-0.3,1-0.6,1.5-0.8c3.7-1.2,7-3.1,9.9-5.7 c1.3-1.2,2.6-2.5,3.8-3.8C193.8,107.1,193.8,107,193.7,107z M157.5,116.8c-0.4,0.3-0.8,0.5-1.2,0.7c-1.8,0.8-2.8,0-2.8-2.4 c0.2-2.1,1.3-4.4,2.8-6.4c1.2-1.6,2.5-3,4.2-4.1c0.3-0.2,0.7-0.4,1.1-0.6c1.7-0.7,3,0.1,2.9,2c-0.1,0.9-0.3,1.9-0.6,2.8 C162.5,112,160.3,114.7,157.5,116.8z M178,117.3c-0.5,0.4-1.1,0.7-1.8,0.9c-1.4,0.5-2.2,0-2.5-1.5c-0.1-0.4-0.1-0.8-0.2-1 c0.2-3.5,1.7-6.2,3.9-8.6c1.1-1.2,2.3-2.1,3.6-3.1c0.4-0.3,1.1-0.5,1.6-0.6c1.1-0.1,1.9,0.5,1.8,1.6c-0.1,1.4-0.3,2.8-0.8,4.1 C182.4,112.2,180.7,115.1,178,117.3z"></path> <path class="st0" d="M144,103.9c-3.1,0.4-5.1,3.2-5.9,5.5c0,0.1,0.1,0.1,0.1,0.4c0.2-0.4,0.3-0.7,0.5-1c0.6-1.4,1.4-2.7,2.7-3.5 s2.7-1.3,4.2-0.5c1.4,0.8,1.8,2.1,1.8,3.6c0,4.3-4.3,9.4-8.6,10.2c-3.6,0.7-6.1-1.1-6.7-4.6c-0.3-1.8-0.2-3.5,0.2-5.3 c0.9-4,2.9-7.4,5.4-10.5c2.9-3.6,6.3-6.5,10.5-8.5c1.7-0.8,3.5-1.4,5.5-1.2c1.9,0.2,3.1,1.7,2.8,3.5c-0.4,2.9-3,5.9-5.9,6.6 c-2.2,0.6-4.2-0.3-4.6-2.3c-0.1-0.6-0.1-1.3-0.1-2c-0.6,1.6-0.2,3.2,1.2,4.1s2.9,1,4.5,0.7c3.1-0.7,5.3-2.3,6.2-5.4 c0.8-2.5-0.5-4.8-3.1-5.5c-2-0.6-4-0.2-5.9,0.5c-7.9,2.9-13.8,8.3-17.8,15.6c-1.3,2.3-2.1,4.8-2,7.5c0.1,4.7,3.6,7.8,8.3,7.3 c3.6-0.4,6.6-2,9.1-4.6c1.7-1.7,2.7-3.7,2.8-6.1C149.3,105.6,146.9,103.6,144,103.9z"></path> <path class="st0" d="M103.4,95.6c0.4,0,0.8-0.1,1.2-0.1c0-0.1,0-0.1,0-0.2c-1.4-0.4-2.7-0.3-4,0.5c-1.5,0.9-1.4,2.6,0.2,3.4 c0.2,0.1,0.5,0.2,0.7,0.3c4.6,1.1,7.4-0.6,9.6-4c0-0.1,0-0.2,0-0.3c-0.9,1-1.7,2-2.7,2.8c-1.6,1.3-3.5,1.8-5.6,1.2 c-0.9-0.3-1.4-1.2-1.3-2.1C101.7,96.3,102.5,95.7,103.4,95.6z"></path> <path class="st0" d="M55.3,42.3c0.1,0.1,0.2,0.2,0.1,0.4c0,0.1-0.1,0.2-0.1,0.3c-0.1,0.2-0.2,0.2-0.1,0.4c0,0.1,0.1,0.2,0.2,0.3 c0.1,0.1,0.1,0.2,0.1,0.2c0.1,0.1,0.1,0.2,0.1,0.4c0.1,0.3,0.1,0.6,0.1,1v0.1c0,0.1,0,0.2,0,0.2s0,0.1,0.1,0.1c0,0,0.1,0.1,0.1,0.2 c0.1,0.2,0.3,0.7,0.2,1C56,47,56,47.1,55.9,47.2l0,0c0,0-0.1,0-0.1,0.1c-0.1,0.1-0.1,0.1-0.1,0.2c0,0.2,0.1,0.3,0.2,0.5 c0,0,0,0.1,0.1,0.1l0,0c0.2,0.2,0.3,0.4,0.4,0.6c0,0.2,0,0.4,0,0.5s-0.1,0.3,0,0.4c0,0.1,0.1,0.3,0.2,0.4c0.1,0.1,0.2,0.3,0.2,0.4 c0.1,0.2,0,0.4,0,0.6c0,0.2,0,0.3,0,0.4v0.1c0,0,0,0,0,0.1c0.1,0.2,0.1,0.3,0.2,0.5c0.1,0.2,0.2,0.5,0.3,0.8c0,0.2,0,0.4,0,0.6l0,0 c0,0.3-0.1,0.7,0.2,0.9c0,0,0.1,0,0.1,0.1c0.3,0.2,0.4-0.2,0.8-0.2c0.3,0,1,0.7,1.2,0c0.1-0.4-0.4-0.8-0.2-1.3 c0.1-0.2,0.3-0.2,0.3-0.5s-0.3-0.5-0.3-0.7c0-0.3,0.4-0.4,0.5-0.7c0-0.1,0-0.3,0-0.4c0-0.2-0.1-0.4,0.1-0.7c0-0.1,0.1-0.1,0.1-0.2 c0.1-0.2,0.2-0.4,0.1-0.7c0-0.1,0-0.1-0.1-0.2c-0.1-0.2-0.2-0.4-0.1-0.6c0.1-0.1,0.2-0.2,0.4-0.2c0.5,0,1,0,1.4,0.1 c0.3,0,0.5,0.1,0.8,0.1c0.6,0,1.2,0.2,1.7,0.3c0.3,0.1,0.7,0.1,1,0.2c1.3,0.2,2.5,0.7,3.7,1.1c0.5,0.2,1.1,0.4,1.6,0.6 c1.2,0.4,2.9,0.9,4.2,0.6c1.3-0.2,2.1-1.2,3.5-0.8c0.6,0.1,1,0.5,1.6,0.7s1.2,0.3,1.8,0.6c1.5,0.8,2.6,2.3,3.7,3.5 c0.8,0.8,1.5,1.7,2.5,2.3c0.8,0.5,1.9,1.3,2.1,2.3c0.2,1.1-0.4,2,0.1,3c0.1,0.1,0.1,0.3,0.2,0.4c0.3,0.8,0,1.6-0.3,2.4 c-0.2,0.5-0.4,1-0.4,1.5c0,0.3,0.1,0.6,0.1,0.8c0,0.1,0.1,0.3,0.1,0.4c0.2,1.1-0.4,2.2-0.9,3.1l-0.1,0.2c-0.8,1.5-0.5,4.8-2.9,4.8 c-1.1,0-2.2-0.4-3.3-0.8c-1.4-0.4-2.8-0.7-4.2-1c-1.3-0.3-2.8-0.7-3.9-1.5c-1.1-0.9-2-2-3-3c-1.1-1-2.4-1.8-3.6-2.7 c-0.7-0.5-1.4-0.8-2.1-1.3c-0.7-0.6-1.5-1-2.1-1.8c-0.3-0.4-0.5-0.9-0.8-1.4s-0.8-0.9-1.2-1.3c-0.2-0.2-0.5-0.3-0.7-0.4 c-0.1-0.1-0.6-0.2-0.7-0.3c7,13.1,20.8,22,36.7,22c1.4,0,2.8-0.1,4.2-0.2c0.1,0,0.2,0,0.2,0c0.3,0,0.5-0.1,0.8-0.1 c0.4,0,0.8-0.1,1.1-0.2c0.4-0.1,0.8-0.1,1.2-0.2c0.4-0.1,0.9-0.2,1.3-0.3c0.4-0.1,0.9-0.2,1.3-0.3c4.2-1.1,8.3-2.8,12-5.1 c2.9-1.9,5.6-4.1,8-6.6c0.5-0.5,1-1.1,1.5-1.6c1.9-2.2,3.5-4.6,4.9-7.1c0,0,0-0.1-0.1-0.1c-1.1,0-2.4,1.3-3,2.1 c-0.6,0.9-1,1.9-1.8,2.6s-1.4,1.5-2.4,1.9c-1.6,0.8-3,1.6-4.4,2.9c-1.2,1.2-2.6,2.9-4.3,3.4c-0.9,0.3-1.9,0.2-2.9,0.5 c-1.1,0.3-2.2,0.5-3.2,0.8c-1.4,0.4-3.1,1-4.6,0.2c-0.9-0.5-1.2-1.3-1.2-2.3c0-0.6-0.3-0.8-0.6-1.3c-0.1-0.3-0.1-0.6-0.1-0.9 s0-0.6-0.1-0.9c-0.4-1.1-1.3-2-1.7-3.1c-0.4-1.1,0.2-2.3-0.2-3.4c-0.4-1,0.4-1.8,0.6-2.7c0.1-0.5,0-0.9,0.2-1.3 c0.2-0.4,0.2-0.7,0.6-1c0.7-0.5,1.6-0.7,2.3-1.1c1.3-0.9,2.2-2.2,3.5-3.2c2.3-1.7,4.7-2.5,7.3-3.3c0.8-0.2,1.6-0.6,2.4-1 c1-0.5,2-1,3.2-1.2c0.3-0.1,0.7-0.1,1.2-0.1c0.3,0,0.7,0,1,0l0,0c0.2,0,0.3,0,0.5,0c0.5,0,0.9,0,1.3-0.1c0.3-0.1,0.7-0.2,1.2-0.4 s1-0.3,1.5-0.5c0.2-0.1,0.5-0.1,0.7-0.2c0.5-0.2,1.1-0.3,1.6-0.3l0.4-0.1c0.4-0.1,0.7-0.2,1-0.3c0,0,0.1,0,0.2-0.1 c0.2-0.1,0.4-0.2,0.6-0.1c0.1,0,0.2,0.1,0.2,0.2c0.1,0.2,0,0.3-0.1,0.5l-0.1,0.1c-0.1,0.2,0,0.3,0.1,0.5c0.1,0.1,0.1,0.1,0.2,0.2 c0.3,0.4,0,0.8,0.1,1.2c0.1,0.3,0.2,0.3,0.1,0.6c-0.1,0.4-0.6,0.8-0.6,1.2c0.1,0.4,0.4,0.5,0.3,1c-0.1,0.3-0.3,0.4,0,0.6 c0.3,0.2,0.4,0,0.5,0.2s0.1,0.5,0.1,0.7c0.1,0.5,0.2,0.9,0.7,0.4c0.1-0.1,0.1-0.2,0.2-0.3c0.1-0.1,0.3-0.1,0.4-0.2 c0.2-0.2,0.2-0.5,0.1-0.7c-0.1-0.2-0.2-0.1-0.1-0.4c0.1-0.2,0.2-0.2,0.3-0.3s0.3-0.2,0.3-0.3c0.2-0.3,0.2-0.5,0.2-0.9 c0-0.1,0-0.1,0-0.2v-0.3c0-0.1,0-0.2,0-0.3c0-0.2,0-0.4,0.1-0.6c0.1-0.1,0.1-0.2,0.2-0.3l0,0c0.1-0.1,0.2-0.2,0.3-0.3 c0-0.1,0.1-0.2,0.1-0.4s0-0.3,0.1-0.5c0-0.1,0.1-0.2,0.1-0.2c0.1-0.2,0.2-0.3,0.2-0.5c0-0.4-0.1-0.8-0.2-1.2c0-0.1-0.1-0.2-0.1-0.3 c-0.1-0.2-0.1-0.4-0.1-0.6c0-0.4,0.1-0.6,0.2-0.9c0.1-0.1,0.1-0.1,0.2-0.2c0.2-0.2,0.3-0.4,0.3-0.7c0-0.2,0-0.3-0.1-0.5 c0-0.1-0.1-0.3-0.1-0.4c-0.1-0.4,0-0.6,0.1-0.8c0-0.1,0-0.1,0.1-0.2c0.2-0.8,0.1-1.5-0.1-2.3c0-0.2-0.1-0.3-0.1-0.5 c-0.1-0.4-0.1-0.7-0.1-1.1c0-0.1,0-0.2,0-0.3s0-0.1,0-0.2c0-0.2-0.1-0.4-0.2-0.6c-0.1-0.2-0.1-0.4-0.2-0.6c0-0.1,0-0.2,0-0.3 c0-0.2,0-0.3,0-0.4c0-0.1-0.1-0.1-0.1-0.1l0,0l-0.1-0.1c-0.1-0.1-0.2-0.1-0.3-0.3c-0.2-0.3-0.1-0.6,0-0.8v-0.1 c0-0.1,0.1-0.1,0.1-0.2l0,0l0,0c0.1-0.1,0.1-0.2,0.1-0.4c0-0.1-0.1-0.2-0.2-0.3l-0.1-0.1l0,0v-0.1v-0.1l0,0v0.1 c-0.2-0.1-0.3-0.3-0.4-0.6c0-0.2,0-0.3,0-0.5c0-0.1,0-0.2,0-0.2c0-0.1,0-0.1,0-0.2v-0.2v-0.2c0-0.1,0-0.1-0.1-0.1v-0.1 c-0.1-0.2-0.1-0.3-0.1-0.3c0-0.1,0-0.1,0-0.1l0,0h0.1c0-0.1,0-0.5-0.2-1c0,0-0.1-0.5-0.2-0.8c0-0.1-0.1-0.1-0.2-0.1H136h-0.1l0,0 c-0.2-0.1-0.2-0.2-0.3-0.4c0,0,0-0.1-0.1-0.1l-0.1-0.1c-0.1-0.1-0.1-0.2-0.2-0.3c0-0.1,0-0.2,0-0.3c0-0.1,0-0.2,0-0.3l-0.1-0.1 c-0.1,0-0.2-0.1-0.2-0.1c-0.2-0.2-0.3-0.4-0.4-0.7c0-0.1,0-0.2,0-0.3c0-0.1,0-0.2-0.1-0.4c-0.1-0.2-0.2-0.3-0.3-0.4l-0.1-0.1 c-0.2-0.3-0.4-0.5-0.5-1.1c-0.1-0.4-0.2-0.6-0.2-0.6c-0.3-0.5-0.7-1.2-0.7-1.7l0,0l-0.1-0.3c-0.1-0.1-0.1-0.2-0.2-0.3l0,0 c-0.1,0-0.1-0.1-0.2-0.1c-0.2-0.1-0.3-0.3-0.5-0.5c-0.1-0.2-0.1-0.4-0.1-0.7v0.1c0-0.2,0-0.3,0-0.5l-0.1-0.4 c-0.1-0.3-0.5-0.6-0.9-0.7l0,0l-0.2-0.3l-0.1-0.1l-0.1-0.1c0,0,0-0.1-0.1-0.1c-0.2-0.4-0.1-0.4-0.5-0.7c0,0-0.1-0.1-0.2-0.1 c-0.2-0.1-0.5-0.3-0.5-0.4c0,0,0-0.1,0.1-0.2v-0.1c-0.1-0.4-0.3-0.6-0.7-0.7c-0.1,0-0.2,0-0.3-0.1c0-0.1,0-0.2,0-0.3 c0-0.4,0-0.7-0.4-1c-0.2-0.1-0.3-0.1-0.5-0.1s-0.4,0-0.7,0c0-0.3,0.1-0.5,0.1-0.6c0-0.2,0-0.3-0.3-0.6c-0.4-0.3-0.8-0.3-1-0.9 c-0.1,0-0.2,0-0.2,0c-0.4-0.1-0.5-0.4-0.7-0.7c-0.1-0.1-0.2-0.3-0.3-0.4c-0.1-0.1-0.2-0.2-0.4-0.2c-0.2-0.1-0.4-0.1-0.5-0.2 c-0.1-0.1-0.2-0.2-0.2-0.3s0-0.3-0.1-0.5c-0.3-0.4-0.5-0.2-0.9-0.3l0,0c-0.3-0.1-0.4-0.2-0.5-0.4c0-0.1-0.1-0.1-0.2-0.2 c-0.1-0.1-0.2-0.1-0.3-0.2c-0.6-0.3-1.1,0-1.3-0.9c0-0.1,0-0.1,0-0.2c-0.1-1.1-0.9-0.5-1.6-1c-0.2-0.1-0.1-0.4-0.3-0.5 c-0.1,0-0.3,0.1-0.5,0.2c-0.1,0-0.1,0.1-0.2,0c-0.2-0.1-0.4-0.3-0.6-0.5c-0.1-0.1-0.3-0.3-0.4-0.3c-0.5-0.2-1.1-0.4-1.5-0.7 c-0.3-0.2-0.1-0.4-0.5-0.5c-0.1,0-0.2,0.1-0.3,0.1c-0.1,0.1-0.3,0.2-0.4,0.2c-0.1-0.2-0.2-0.4-0.4-0.6c-0.1-0.2-0.3-0.3-0.5-0.4 c-0.1-0.1-0.4-0.2-0.6-0.2c-0.1,0-0.2,0-0.3,0.1c-0.1,0.1-0.3,0.1-0.4,0.1c-0.3,0-0.3-0.2-0.5-0.4c-0.3-0.2-0.2-0.2-0.7-0.3 c-0.3,0-0.3-0.1-0.5-0.2c-0.3-0.1-0.7-0.1-0.9-0.2l-0.1-0.1c-0.2-0.2-0.2-0.4-0.5-0.5s-0.6,0-0.8,0.1c-0.2,0.1-0.4,0.1-0.6,0.1 s-0.6-0.1-0.7-0.2c0,0-0.1-0.1-0.1-0.3c0-0.1,0-0.1,0-0.1c-0.5-0.1-1-0.2-1.5-0.2c-0.2,0-0.4,0-0.6,0c-0.4,0-1.5,0.2-1.5-0.3 c0-0.1,0-0.1,0-0.2c-0.3-0.1-0.6,0-0.8,0.1c-0.2,0.1-0.4,0.1-0.6,0.1c-0.4,0-0.8-0.2-1.1-0.2c-0.4,0-1,0.4-1.4,0.3 c-0.2-0.1-0.3-0.3-0.5-0.4l0,0c-0.1,0-0.2,0-0.3,0c-0.1,0-0.2,0.1-0.3,0.1c-0.2,0-0.4,0-0.6-0.1c-0.1,0-0.3,0-0.5,0 c-0.1,0-0.1,0-0.2,0.1c-0.2,0.1-0.2,0.2-0.4,0.2c-0.3,0.1-0.5,0-0.8,0c-0.5,0.1-0.5,0.2-1,0c-0.3-0.1-0.6-0.1-0.8-0.1l0,0 c-0.2,0-0.3,0-0.5,0l0,0c0,0.1,0,0.3,0,0.4c-0.5,0-1.1,0.2-1.6,0c-0.2-0.1-0.3-0.1-0.4-0.2c-0.2-0.1-0.3-0.2-0.6-0.1 c-0.1,0-0.3,0.2-0.4,0.3l0,0c-0.2,0.1-0.4,0.1-0.6,0.2c-0.3,0.1-1.2,0.8-1.2,0.1v0.5c-0.2,0-0.4,0.1-0.6,0.2 c-0.1,0-0.1,0.1-0.2,0.1s-0.1,0-0.2,0l0,0c-0.2,0-0.3,0-0.5,0.1c-0.1,0-0.1,0.1-0.2,0.1c-0.3,0.2-0.2,0.5-0.7,0.6 c-0.5,0.1-0.9,0.1-1.3,0.1c-0.1,0-0.1,0-0.2,0l0,0c-0.4,0.1-0.8,0.2-1.3,0.3C81.8,3,82,2.8,81.7,3c-0.1,0.1-0.1,0.2-0.2,0.3 c-0.1,0.2-0.2,0.4-0.4,0.4c-0.4,0.2-0.8,0-1.2,0.3c-0.3,0.2-0.7,0.5-1,0.7c-0.4,0.2-0.8,0.2-1.2,0.4c-0.5,0.3-0.6,0.7-1.3,0.7 c-0.1,0-0.2,0-0.3,0c-0.1,0-0.2,0-0.4,0c-0.2,0.1-0.3,0.3-0.5,0.4c-0.3,0.2-0.8,0.2-1.1,0.5C74,6.8,73.9,7,73.8,7.2 c-0.1,0.2-0.2,0.4-0.4,0.6c-0.1,0.1-0.3,0-0.5,0c-0.1,0-0.1,0-0.2,0c-0.2,0.1-0.4,0.3-0.6,0.6c-0.1,0.1-0.2,0.2-0.2,0.2 c-0.4,0.3-0.8,0.5-1.1,0.9c-0.4,0.5-0.5,0.6-1.1,0.9c-0.1,0.1-0.2,0.1-0.3,0.1c-0.4,0.2-0.6,0.4-0.9,0.8c0,0,0,0,0,0.1 c-0.3,0.4-0.5,0.9-0.8,1.2c-0.2,0.1-0.4,0.1-0.5,0.2c-0.2,0-0.4,0.1-0.5,0.4v0.1c0,0.1-0.1,0.2-0.2,0.3s-0.1,0.1-0.2,0.1 c0,0-0.1,0-0.1,0.1c-0.1,0-0.2,0.1-0.3,0.1c-0.1,0.1-0.1,0.3-0.2,0.5c0,0,0,0,0,0.1c0,0.2-0.1,0.5-0.3,0.8 c-0.1,0.1-0.3,0.2-0.4,0.2s-0.2,0.1-0.3,0.1c0,0,0,0-0.1,0.1s0,0.2,0,0.4c0,0.1,0,0.3,0,0.4c-0.1,0.3-0.4,0.4-0.6,0.4 c-0.1,0.1-0.3,0.1-0.4,0.2c-0.1,0.1-0.2,0.2-0.2,0.4c-0.1,0.1-0.1,0.3-0.2,0.3l0,0.2c-0.1,0.1-0.2,0.2-0.4,0.4l0,0 c0,0-0.1,0-0.2,0.1c-0.3,0.1-0.5,0.2-0.5,0.2l0.1,0.3c0,0,0,0.1,0.1,0.1l0,0v0.1c0,0.1,0,0.2-0.1,0.3c-0.1,0.1-0.2,0.2-0.3,0.3 l-0.1,0.1L61.7,20c-0.1,0.1-0.1,0.2-0.1,0.3c0,0.1-0.1,0.2-0.1,0.3c-0.1,0.2-0.2,0.3-0.3,0.5c-0.2,0.3-0.5,0.6-0.8,0.9l-0.2,0.2 C60,22.4,60,22.4,60,22.5c0,0.1,0,0.1,0,0.3c-0.1,0.3-0.1,0.6-0.2,0.8c-0.1,0.2-0.1,0.4-0.2,0.6c-0.1,0.1-0.2,0.3-0.3,0.4 s-0.2,0.2-0.3,0.3c-0.2,0.2-0.4,0.4-0.5,0.7c-0.1,0.2-0.1,0.5-0.1,0.7s0,0.3,0,0.5c0,0.1,0,0.2-0.1,0.3c0,0.1-0.1,0.2-0.2,0.3 c0,0,0,0.1-0.1,0.1c-0.1,0.2-0.2,0.3-0.2,0.4c0,0.2-0.1,0.3-0.1,0.5c0,0.1,0,0.2-0.1,0.3c-0.1,0.3-0.1,0.6-0.3,0.9 c0,0.1-0.1,0.1-0.1,0.2C57.1,29.9,57.1,30,57,30c-0.3,0.5-0.7,1-0.5,1.6v0.1c0,0.2,0.1,0.3,0.1,0.4l0,0c0,0.1,0,0.2-0.1,0.3v0.1 c0,0.1-0.1,0.2-0.1,0.3c-0.2,0.6-0.3,1.1-0.7,1.7c-0.1,0.2-0.1,0.2-0.1,0.3c0.1,0.1,0.1,0.1,0.2,0.3c0.1,0.1,0.1,0.2,0.1,0.3 s0,0.2,0,0.4c0,0,0,0.1-0.1,0.1l0,0c-0.1,0.2-0.1,0.3-0.1,0.5s-0.1,0.4-0.2,0.7c0,0.1-0.1,0.1-0.1,0.2c-0.1,0.1-0.2,0.3-0.2,0.4 c0,0.1,0.1,0.2,0.2,0.3l0.1,0.1l0.1,0.1c0.3,0.4,0.1,0.8-0.1,1.1c0,0.1-0.1,0.2-0.1,0.3v0.1c-0.1,0.2-0.1,0.5-0.2,0.8 c0,0.2-0.1,0.5-0.2,0.7v0.1c-0.1,0.2-0.1,0.4,0,0.6C55.2,42.2,55.2,42.3,55.3,42.3z M91.2,54.1c-0.3,0.6-1.1,0.8-2.5,0.2 c-1.3-0.6-2.1-2.2-3.2-3.1c-1.3-0.9-2.7-1.6-4.2-2.1c-0.6-0.2-1.2-0.5-1.8-0.8c-0.2-0.1-0.5-0.2-0.7-0.3c-0.9-0.4-1.4-1.1-1.4-1.9 c0-0.3,0-0.6,0-0.9c0-0.3,0-0.5,0-0.8s-0.1-0.7-0.2-1c0-0.2-0.1-0.4-0.1-0.6c-0.1-0.6-0.2-1.2-0.4-1.7c-0.2-0.7-0.4-1.4-0.4-2.1 c0-0.1,0-0.1,0-0.2c-0.1-0.4-0.1-0.9,0.1-1.2c0.1-0.2,0.3-0.2,0.5-0.2c0.1,0,0.3,0,0.4,0.1c0.1,0,0.1,0,0.2,0c1,0.1,2,0.4,2.7,1.1 c0.2,0.2,0.4,0.5,0.6,0.7c0.1,0.1,0.2,0.3,0.3,0.4c0.2,0.2,0.3,0.4,0.5,0.6c0.1,0.1,0.3,0.3,0.4,0.4c0.2,0.2,0.4,0.4,0.6,0.7 s0.4,0.5,0.6,0.8c0.1,0.1,0.2,0.3,0.4,0.4c0.1,0.2,0.3,0.4,0.4,0.5c0.5,0.7,1.1,1.3,1.7,1.9c0.4,0.3,0.9,0.6,1.4,0.9 c1,0.6,2,1.1,2.6,2.1C90.5,49.2,92,52.8,91.2,54.1z M82,30.3c-0.1-1.6-0.6-3.1-0.7-4.7c0-0.5-0.2-1.3,0.1-1.7c0.7-1,2.5,1.1,3,1.5 c1.2,1.2,2.4,2.6,2.8,4.3c0.4,1.7,0.6,3.4,0.9,5.1c0.1,0.3,0.1,0.6,0.1,1c0.1,1,0.3,2,0.6,2.9c0.1,0.2,0.1,0.3,0.1,0.5 c0.2,0.8,0.4,1.5,0.4,2.2v0.1c0,0.6,0,1.8-0.7,2h-0.1c-0.4,0-0.9-0.3-1.2-0.5h-0.1c-0.7-0.4-1.1-1.1-1.5-1.7 c-0.2-0.3-0.4-0.7-0.7-1c-0.2-0.2-0.3-0.4-0.5-0.6c-0.7-0.8-1.3-1.4-1.7-2.6c-0.1-0.5-0.2-0.9-0.2-1.4v-0.3c0-0.3-0.1-0.7-0.2-1 c-0.1-0.6-0.2-1.2-0.2-1.8c0-0.2,0-0.4,0-0.6C82.1,31.5,82.1,30.9,82,30.3z M97.8,40.9v0.7c0,1.1-0.4,2.1-0.8,3.2 c-0.4,1-0.5,2.2-0.7,3.3c0,0.3-0.1,0.6-0.1,0.9c-0.1,0.7-0.2,1.8-1,1.8c-0.2,0-0.3-0.1-0.5-0.2c-0.4-0.3-0.7-0.9-0.9-1.4 c-0.1-0.2-0.2-0.5-0.3-0.7c-0.2-0.3-0.4-0.6-0.6-0.9c-0.4-0.6-0.8-1.2-1-1.9c-0.3-1-0.3-1.9-0.2-2.8c0-0.5,0.1-1,0-1.5 c-0.1-1.6-0.5-3.2-1.1-4.5c-0.3-0.6-0.5-1.2-0.6-1.8c-0.2-0.7-0.3-1.3-0.5-2c-0.4-1-0.4-2.2-0.5-3.2c-0.2-1.3,0.1-2.9,0.4-4.2 c0.3-0.9,0.3-1.9,0.7-2.8c0.6-1.5,2,1.5,2.1,2c0.1,0.2,0.2,0.5,0.3,0.7c0.5,1,0.8,2.1,1.2,3.1c0.2,0.6,0.5,1.3,0.7,2l0.2,0.4 c0.5,1.3,1,2.4,1.7,3.5c0.3,0.4,0.5,0.9,0.7,1.3V36C97.9,37.4,97.9,39.2,97.8,40.9z M96.7,30.6c-0.1-0.2-0.2-0.5-0.4-0.7 c-0.6-1.2-1.1-2.4-1.6-3.5c-0.4-0.8-0.8-1.6-1.2-2.4c-0.2-0.3-0.3-0.7-0.5-1c-0.1-0.1-0.1-0.2-0.2-0.3c-0.1-0.3-0.3-0.5-0.4-0.8 c-0.1-0.1-0.2-0.2-0.2-0.3c-0.2-0.3-0.4-0.5-0.6-0.8c-0.2-0.5,0-0.8,0.2-1.1c0.1-0.1,0.1-0.2,0.2-0.3c0.3-0.6,0.7-1.3,1.2-1.8 c0.6-0.6,1.3-1.1,2-1.5c0.3-0.2,0.7-0.4,1-0.6c0.1-0.1,0.2-0.1,0.3-0.2c0.2-0.1,0.3-0.2,0.5-0.3c0.1-0.1,0.3-0.3,0.6-0.3 c0.1,0,0.2,0,0.2,0.1c0.5,0.3,0.6,0.8,0.7,1.3c0,0.1,0.1,0.3,0.1,0.4c0.1,0.4,0.2,0.9,0.3,1.3c0.1,0.3,0.1,0.7,0.2,1 c0.2,0.6,0.4,1.2,0.7,1.8c0.1,0.3,0.3,0.6,0.4,1c0.3,0.7,0.5,1.3,1,1.9c0.1,0.1,0.1,0.2,0.2,0.2c0.2,0.3,0.4,0.5,0.5,0.8 c0,0.1,0.1,0.1,0.1,0.2c0.1,0.2,0.2,0.4,0.3,0.6c0.1,0.6-0.1,1.3-0.2,1.8c-0.2,0.6-0.2,1.2-0.3,1.9c-0.1,1-0.4,1.9-0.8,2.8 c-0.2,0.4-0.4,0.7-0.6,0.9c-0.3,0.3-0.5,0.4-0.9,0.4C98.3,33.1,97.1,31.4,96.7,30.6z M101,50.8c-0.2,0-0.3,0-0.5-0.1 c-1-0.5-0.9-2-0.8-3.1c0.1-0.9,0.3-1.8,0.5-2.6s0.4-1.7,0.5-2.5c0.1-0.7,0.1-1.5,0.1-2.2c0-1.2,0.1-2.4,0.3-3.7c0.2-1,0.7-2,1.1-3 l0.1-0.2c0.3-0.6,0.5-1.3,0.7-2c0.1-0.5,0.1-0.9,0.2-1.4c0-0.2,0-0.3,0-0.5v-0.1c0.1-1.1,0.2-2.4,0.7-2.4h0.1 c0.5,0.1,0.8,0.9,0.9,1.4c0,0.1,0.1,0.2,0.1,0.3c0.1,0.4,0.3,0.8,0.3,1.1c0.1,0.3,0.2,0.7,0.3,1c0.4,1,0.3,2,0.2,3 c-0.1,0.8-0.1,1.6,0,2.4c0.1,0.3,0.1,0.6,0.1,0.9c0.1,0.4,0.1,0.7,0.2,1.1c0.3,1.5,0.2,2.5-0.1,3.9c-0.3,1.3-0.8,2.6-1.6,4.1 c-0.1,0.1-0.2,0.4-0.3,0.7C103.5,48.4,102.3,50.8,101,50.8z M113.6,48.6c-0.1,0.2-0.2,0.4-0.3,0.7c-0.9,1.9-2.8,2-4.4,3.1 c-1.1,0.8-1.7,2.3-3.3,2.5c-0.1,0-0.3,0-0.4,0c-0.5,0-0.8-0.2-1-0.5c-0.4-0.8,0.3-2.5,0.7-3.1c1.5-2,2.4-4.4,3.2-6.4 c0.3-0.9,0.3-1.8,0.6-2.7c0.3-0.8,0.8-1.4,1.5-1.9c0.8-0.6,1.7-1.3,2.4-2.1c1.4-1.5,2.1-3.7,4.1-4.4c0.1-0.1,0.3-0.1,0.4-0.1 c0.3-0.1,0.8-0.3,1.2-0.3c0.3,0,0.5,0.1,0.6,0.3c0.3,0.4,0.1,1.1,0,1.6v0.1c-0.2,0.7-0.2,1.4-0.4,2.1c-0.2,0.7-0.5,1.3-0.7,2 c-0.2,0.9-0.3,1.8-0.8,2.6s-1.1,1.6-1.5,2.4C115,45.8,114.2,47.2,113.6,48.6z M114.2,31.7c0,1.2-0.5,2.2-1.3,3.1 c-0.6,0.6-0.9,1.4-1.5,2.1c-0.5,0.6-1.1,0.8-1.9,1.1c-0.4,0.1-0.7,0-0.9-0.3c-0.6-1-0.7-2.1-0.7-2.9c0-0.6-0.1-1.1-0.1-1.7 c0-0.3-0.1-0.7-0.1-1c-0.1-1.3,0-2.1,0.3-2.6s0.7-0.9,1-1.1c0.2-0.1,0.3-0.2,0.5-0.4c0.3-0.2,0.6-0.5,0.9-0.7 c0.3-0.3,0.6-0.6,0.8-0.9c0.3-0.3,0.5-0.7,0.8-0.9c0.4-0.3,1-1.3,1.2-0.3c0.1,0.5,0,1,0,1.4C113.3,28.3,114.2,29.9,114.2,31.7z M135,41.7c-0.1,0.6-0.4,0.5,0,1c0.2,0.3,0.3,0.8,0.1,1.2c-0.1,0.2-0.2,0.3-0.3,0.3c-0.2,0.1-0.2,0.2-0.1,0.5v0.1 c0.2,0.4,0.2,0.5-0.2,0.8c-0.3,0.2-0.6,0.4-0.9,0.5c-0.2,0.1-0.3,0.2-0.4,0.2c-0.3,0.1-0.7,0.2-1,0.3c-0.2,0-0.4,0.1-0.6,0.1 c-1.1,0.3-2.1,0.5-3.1,0.9c-0.8,0.3-1.6,0.3-2.2,0.3c-0.3,0-0.7,0-1,0s-0.7,0-1,0c-0.6,0-1,0-1.4,0.1c-0.2,0-0.3,0.1-0.5,0.1 c-0.5,0.1-1,0.1-1.5,0.3c-0.3,0.1-0.7,0.2-1,0.3c-0.6,0.2-1.1,0.5-1.7,0.5c-0.5,0-1.2,0-1.5-0.3c-0.6-0.7,0-2,0.4-2.7 c0.2-0.4,0.4-0.8,0.7-1.1c0.4-0.6,0.8-1.2,1.4-1.7c0.3-0.3,0.6-0.4,1-0.5s0.9-0.3,1.3-0.4c0.5-0.1,1-0.1,1.5-0.2 c1.2-0.1,2.2-0.7,3.3-1c0.9-0.3,1.8-0.2,2.7-0.4c0.8-0.2,1.7-0.1,2.6-0.1c0.5,0,1,0,1.6,0.1c0.4,0,1.2-0.1,1.6,0 C135,41,135.1,41.3,135,41.7z M133.1,34.2c0,0.1,0,0.1,0,0.2c0.1,0.4,0.4,0.4,0.5,0.8c0.1,0.5,0,0.6,0.5,0.8 c0.3,0.1,0.7,0.1,0.7,0.5c0,0.2-0.1,0.4-0.2,0.6c0,0.2,0,0.3,0,0.5c-0.1,0.3-0.6,0.7-0.5,1.1c0.1,0.4,0.6,0.3,0.3,0.8 s-1.2,0.3-1.7,0.3c-0.8,0-1.6-0.2-2.5-0.2c-0.7,0-1.4,0.1-1.4-0.8c0-0.8,0.4-1.8,0.8-2.5c0.3-0.5,0.6-1,1-1.5s1.4-1.6,2-1.7 C133.3,33.1,133.1,33.8,133.1,34.2z M131.8,29.6c0.1,0,0.2,0.1,0.3,0.2c0.2,0.2,0.3,0.6,0.5,0.8c0.8,1-0.8,2-1.5,2.7 s-1.5,1.4-2,2.3c-0.4,0.7-0.9,1.4-1.1,2.2c-0.2,0.6-0.3,1.2-0.7,1.7c-0.4,0.6-1.2,0.8-1.9,1c-0.8,0.3-1.6,0.4-2.6,0.5 c-0.2,0-0.4,0-0.6,0c-0.3,0-0.6,0.1-0.8,0.1c-0.6,0-1.4-0.1-1.5-1.2c-0.1-0.7,0.1-1.4,0.3-2.1c0.1-0.4,0.2-0.7,0.3-1.1 c0.1-0.4,0.1-0.7,0.1-1.1c0.2-1.7,0.3-3.1,2.6-3.4c0.7-0.1,1.7-0.3,2.6-0.6c0.4-0.2,0.9-0.4,1.3-0.6c0.8-0.4,1.6-0.7,2.5-0.9 c0.1,0,0.3-0.1,0.5-0.1C130.6,29.8,131.4,29.5,131.8,29.6z M126.7,19.6c0.1,0,0.2-0.1,0.3,0c0.1,0,0.2,0.1,0.3,0.2 c0.2,0.3,0,1-0.1,1.2l-0.1,0.1c0,0.1,0,0.2,0.1,0.2c0.3,0.3,0.5,0.3,0.6,0.3l0,0l0,0l0.3,0.2l0,0c0.1,0.2,0.1,0.6,0.1,0.9l0.1,0.2 c0,0.1,0.1,0.1,0.1,0.2s0,0.1,0.1,0.2l0.1,0.2c0.1,0.1,0.1,0.1,0.1,0.2s-0.1,0.2-0.2,0.3v0.1c0,0.1,0.1,0.3,0.3,0.4 c0.1,0,0.1,0.1,0.1,0.1c0.1,0.1,0.2,0.3,0.2,0.5s0.1,0.3,0.2,0.4l0.3,0.2c0.3,0.2,0.7,0.2,1.1,0.1l0,0l0,0c0.5,0.3,0.3,0.7,0.2,1 c-0.1,0.2-0.2,0.4-0.1,0.6c0,0,0,0.1,0.1,0.1c0.1,0.1,0.1,0.1,0.1,0.3c0,0.1-0.1,0.2-0.1,0.2s0,0,0,0.2c0,0.1,0.1,0.1,0.1,0.2 c0.1,0.1,0.1,0.2,0.1,0.3c0,0.1-0.1,0.2-0.2,0.2c-0.2,0.1-0.5,0.2-0.8,0.2c-0.1,0-0.2,0-0.3,0.1c-0.8,0.2-1.7,0.5-2.7,0.8 c-1.3,0.5-2.4,0.8-3.5,0.9c-0.1,0-0.3,0-0.4,0.1c-0.3,0.1-0.6,0.1-0.9,0.1s-0.6-0.1-0.6-0.4c-0.1-0.4,0-0.9,0-1.3v-0.1 c0.1-0.6,0.3-1.3,0.5-1.9l0.1-0.3c0.3-0.9,0.8-1.9,1.4-2.8c0.2-0.3,0.4-0.7,0.6-1.1s0.4-0.8,0.7-1.2c0.1-0.1,0.2-0.3,0.3-0.5 c0.1-0.2,0.3-0.5,0.4-0.7c0,0,0.1-0.1,0.1-0.2C126,20.2,126.4,19.7,126.7,19.6z M121.9,15.8L121.9,15.8c0.3-0.4,0.6-0.8,1-0.8 c0.1,0,0.1,0,0.2,0h0.1c0.2,0,0.3,0.1,0.4,0.2c0,0.1,0.1,0.1,0.1,0.2c0,0.1,0,0.1,0.1,0.1s0.1,0,0.2,0s0.2-0.1,0.3-0.1h0.1 c0.1,0,0.3,0,0.4,0.1h0.1v0.1c-0.1,0.3-0.1,0.7,0,1c0,0.1,0.1,0.1,0.2,0.2c0.1,0,0.2,0.1,0.3,0.2c0.1,0.1,0.1,0.4,0.2,0.6 c0.1,0.4,0.1,0.7,0.4,0.7h0.1v0.1c0.2,0.8-0.4,1.5-0.9,2.1c-0.2,0.2-0.3,0.4-0.5,0.6c-0.3,0.5-0.7,1-1,1.5c-0.7,1-1.4,2.1-2,3.2 c-0.6,1-0.9,2.2-1.2,3.2c-0.1,0.2-0.1,0.4-0.1,0.7c-0.1,0.7-0.2,1.4-0.8,1.7c-0.1,0.1-0.3,0.1-0.4,0.2c-0.2,0.1-0.4,0.2-0.6,0.3 c-0.3,0.1-0.7,0.2-1,0.2c-1.2,0-1.5-0.7-1.8-1.8c-0.3-1.5-1.1-2.9-1.2-4.5c0-1.9,1.3-2.8,2.6-4c0.6-0.6,1.1-1.1,1.6-1.8 c0.3-0.3,0.5-0.7,0.8-1l0,0c0.4-0.6,0.9-1.1,1.4-1.7c0.1-0.2,0.3-0.3,0.4-0.4C121.3,16.4,121.6,16.1,121.9,15.8z M116.4,12.9 c0-0.1,0-0.2,0.1-0.3c0.1-0.5,0.2-1,0.5-1.4c0.2-0.4,0.5-0.6,0.7-0.6l0,0c0.3,0,0.8,0.4,0.8,0.7c0,0.2-0.1,0.4-0.2,0.6l0,0 c0,0,0,0.1,0.1,0.1l0.1,0.1c0.1,0.1,0.4,0.1,0.6,0c0.3,0,0.5-0.1,0.7,0c0.4,0.1,0.5,0.3,0.6,0.5c0.1,0.1,0.2,0.3,0.3,0.3 c0.1,0,0.2,0,0.3,0h0.1c0.1,0,0.3,0,0.4,0.2c0.3,0.5-0.1,1.6-0.4,1.9c-0.1,0.1-0.2,0.3-0.3,0.4c-0.1,0.1-0.1,0.1-0.2,0.2 c-0.2,0.2-0.4,0.4-0.6,0.6s-0.4,0.4-0.6,0.6c-0.5,0.7-1.1,1.3-1.7,1.9c-0.3,0.4-0.8,0.8-1.2,1.2c-0.2,0.1-0.4,0.3-0.6,0.4 c-0.3,0.2-0.7,0.8-1.1,0.7c-0.2-0.1-0.3-0.3-0.3-0.5c-0.1-0.5,0.1-1,0.1-1.5c0.1-0.6,0.2-1.2,0.4-1.8c0.1-0.2,0.1-0.4,0.2-0.5 c0.3-0.9,0.5-1.9,0.7-2.9L116.4,12.9z M113.5,9.5c0.1-0.3,0.3-0.6,0.5-0.7l0,0c0.2-0.1,0.3-0.2,0.4-0.2c0.3,0,0.3,0.3,0.4,0.5 c0,0.1,0,0.2,0.1,0.2l0.1,0.2c0,0.1,0,0.1,0.1,0.1h0.1c0.1,0,0.2,0,0.3,0c0.2,0.1,0.2,0.2,0.1,0.3c0,0.1,0,0.1,0,0.1 c0.1,0.1,0.1,0.1,0.2,0.1s0.2,0,0.2,0.1c0.1,0.1,0.1,0.2,0.1,0.3c0,0.2-0.1,0.3-0.1,0.5c0,0.1,0,0.2-0.1,0.2 c-0.1,0.3-0.2,0.6-0.3,1c-0.1,0.3-0.2,0.7-0.3,1c-0.2,0.9-0.3,1.7-0.5,2.5c-0.1,0.4-0.3,0.8-0.5,1.2c-0.1,0.3-0.2,0.5-0.3,0.8 c-0.3,0.9-0.5,1.9-0.6,2.8c0,0.2,0,0.4,0,0.6c0,0.5,0,1-0.5,1.4c-0.3,0.2-0.5,0.4-0.8,0.6c-0.2,0.1-0.3,0.3-0.5,0.4 c-0.4,0.4-0.8,0.8-1.2,1.2c-0.5,0.6-1,1.2-1.8,1.7c-0.5,0.3-1.1,0.6-1.6,0.6c-0.4,0-0.7-0.2-1-0.5c-0.2-0.3-0.4-0.5-0.7-0.7 c-0.2-0.2-0.3-0.3-0.5-0.5c-0.5-0.6-0.6-1.1-0.4-1.9c0.1-0.5,0.3-0.9,0.6-1.3V22c0.1-0.1,0.1-0.3,0.2-0.4c0.2-0.5,0.5-0.9,0.7-1.4 s0.5-0.9,0.8-1.3s0.5-0.8,0.7-1.2l0.1-0.1c0.7-1.4,1.7-2.6,2.5-3.8c0.7-1,1.3-1.8,1.9-2.5c0.2-0.2,0.3-0.4,0.5-0.5 c0.3-0.3,0.5-0.5,0.7-0.9C113.4,9.7,113.4,9.6,113.5,9.5z M106.4,6.6L106.4,6.6c0.6,0.1,0.9,0.7,1.3,0.7c0.1,0,0.1,0,0.2,0 s0.2,0.1,0.3,0.1c0.1,0,0.1,0.1,0.2,0.1s0.1,0,0.2,0s0.2,0,0.3,0c0.2,0.1,0.3,0.2,0.3,0.3c0,0,0,0.1,0.1,0.1 c0.1,0.1,0.1,0.1,0.2,0.1h0.1c0.2,0,0.3,0,0.5-0.1c0.2-0.1,0.4-0.1,0.6-0.1c0,0,0.1,0,0.2,0s0.1,0,0.2,0c0.2,0,0.3,0,0.5,0.1 c0.1,0.1,0.1,0.2,0.1,0.3v0.1l0.2,0.1c0.2-0.1,0.4-0.3,0.5-0.3h0.1l0,0h0.1c0.1,0,0.3,0,0.5-0.1h0.3c-0.1,0-0.2,0.4-0.3,0.5 c-0.1,0.3-0.3,0.5-0.5,0.7c-0.3,0.4-0.7,0.9-1.1,1.3c-0.3,0.3-0.5,0.5-0.7,0.8c-0.3,0.3-0.5,0.6-0.8,0.9c-0.1,0.1-0.2,0.2-0.3,0.4 c-0.3,0.4-0.7,0.8-1.1,1.2c-0.3,0.3-0.5,0.7-0.9,0.5c-0.3-0.1-0.4-0.5-0.5-0.8c-0.2-0.8-0.4-1.6-0.6-2.5c-0.1-0.8-0.2-1.6-0.3-2.5 c0-0.3-0.1-0.6-0.2-0.9C106,7.4,105.6,6.5,106.4,6.6z M103,6.1c0.2,0,0.3,0.1,0.4,0.2c0,0,0,0.1,0.1,0.1c0,0,0,0,0,0.1 c0.2,0.2,0.4,0.3,0.7,0.1c0.2-0.1,0.4-0.2,0.6,0c0.1,0.1,0,0.4,0.2,0.5c0.1,0.1,0.3,0.1,0.4,0.2s0.1,0.4,0.1,0.5 c0.1,0.5,0.2,1,0.2,1.5c0,0.3,0.1,0.6,0.1,0.9c0.1,1.2,0.2,2.4,0.4,3.6c0,0.2,0.1,0.4,0.1,0.6c0.2,0.9,0.5,1.8,0.2,2.7 c-0.2,0.6-0.5,1.1-0.9,1.6c-0.2,0.3-0.3,0.5-0.5,0.8c-0.4,0.7-0.8,1.3-1.2,2l-0.3,0.5c-0.3,0.4-0.5,0.6-0.8,0.6 c-0.2,0-0.5-0.2-0.8-0.5c-0.6-0.7-1-1.3-1.3-2.1c-0.4-0.9-0.7-2-0.9-3.2c0-0.1,0-0.2-0.1-0.4c-0.1-0.4-0.1-0.8-0.3-1.2 c-0.1-0.3-0.2-0.5-0.3-0.7c-0.4-0.7-0.7-1.3-0.4-2.2c0.2-0.5,0.4-0.9,0.6-1.3c0.2-0.3,0.4-0.7,0.6-1.1c0.2-0.5,0.5-0.9,0.7-1.3 c0.1-0.2,0.2-0.4,0.4-0.6c0.1-0.1,0.1-0.2,0.2-0.3C101.7,7.1,102.1,6.3,103,6.1z M95.4,5.9L95.4,5.9C95.5,5.8,95.5,5.8,95.4,5.9 l0.2-0.2c0.1-0.2,0.5-0.1,0.8,0.1l0.3-0.1c0.1,0,0.1,0,0.2-0.1L97,5.5c0.1,0,0.1-0.1,0.2-0.1h0.1h0.1c0.2,0,0.4,0,0.6-0.1 c0.2,0.1,0.2,0.1,0.3,0.1c0,0,0,0,0.1,0s0.1,0,0.2,0c0.2,0,0.3,0.2,0.4,0.3c0.1,0.1,0.2,0.2,0.4,0.2c0.1,0,0.2-0.1,0.4-0.1h0.1 c0.2-0.1,0.5-0.2,0.7-0.2s0.3,0.1,0.3,0.3c0,0.1,0,0.1,0,0.2c0,0,0,0,0,0.1c0,0,0.1,0,0.2,0.1h0.1c0.2,0.1,0.2,0.2,0.1,0.4v0.1 c0,0.2-0.1,0.4-0.2,0.6c-0.1,0.3-0.3,0.6-0.5,0.8c-0.1,0.1-0.1,0.2-0.2,0.4c-0.2,0.4-0.4,0.8-0.6,1.2l-0.1,0.3 c-0.2,0.5-0.5,0.8-0.8,1.2c0,0-0.1,0.1-0.1,0.2c-0.2,0.4-0.4,0.7-0.6,0.7c-0.3,0-0.4-0.3-0.5-0.6c0-0.1-0.1-0.2-0.1-0.2 c-0.2-0.3-0.4-0.6-0.6-0.8c-0.6-0.9-1.3-1.9-1.5-3c0-0.1-0.1-0.2-0.1-0.4c-0.1-0.5-0.2-0.7-0.2-0.9C95.2,6.1,95.4,6,95.4,5.9z M90.8,7.1C90.9,7.1,91,7,91.1,7c0.1,0,0.1,0,0.2-0.1c0,0,0-0.1,0-0.2V6.6c0-0.1,0-0.1,0.1-0.2c0.1-0.2,0.5-0.5,0.8-0.2 c0.1,0.1,0,0.3,0.2,0.3s0.3-0.2,0.4-0.2c0.2,0,0.3,0.1,0.4,0.1c0.4,0.2,0.4-0.3,0.7-0.2c0.2,0.1,0.4,0.4,0.5,0.6 c0.2,0.2,0.3,0.3,0.4,0.6c0,0.2,0.1,0.4,0.1,0.5C95,8.3,95.1,8.6,95.2,9c0.2,0.4,0.4,0.7,0.6,1.1c0.2,0.3,0.4,0.6,0.6,1 c0.1,0.2,0.2,0.4,0.3,0.6c0.1,0.1,0.1,0.2,0.2,0.3c0.2,0.4,0.3,0.9,0.1,1.3c-0.3,0.8-1.2,1.3-2,1.6c-0.1,0-0.2,0.1-0.3,0.2 c-0.5,0.3-1.1,0.7-1.6,0.2c-0.3-0.3-0.5-0.8-0.6-1.3c-0.1-0.3-0.3-0.7-0.4-1c-0.1-0.4-0.3-0.7-0.4-1.1c-0.2-0.6-0.2-1.2-0.3-1.8 c-0.2-0.7-0.4-1.2-0.5-1.8C90.8,7.9,90.5,7.4,90.8,7.1z M83.8,7.9C83.9,7.9,84,8,84,8c0.1,0,0.1,0.1,0.2,0c0.2-0.2,0-0.5,0.3-0.6 c0.1,0,0.3,0,0.5,0h0.1h0.1l0-0.1c0.1-0.1,0.2-0.2,0.3-0.3c0.2-0.1,0.5-0.1,0.7-0.1L86.4,7c0.1,0.1,0.4,0.1,0.5,0c0,0,0.1,0,0.2,0 c0.2,0,0.6,0.1,0.7,0.2l0.1,0.1c0,0,0.1,0.1,0.1,0.2v0.1c0,0.1,0.1,0.2,0.1,0.3l0,0c0,0,0.1-0.1,0.2-0.2l0,0l0.5-0.3l0,0 c0.4,0.3,0.4-0.7,0.9-0.4c0.4,0.2,0.3,0.8,0.4,1.1c0.2,0.7,0.4,1.3,0.5,2s0.2,1.3,0.4,2c0.1,0.6,0.3,1.2,0.5,1.8 c0.1,0.3,0.3,0.6,0.4,0.9c0.2,0.6,0.3,1.3,0,1.9c-0.1,0.1-0.1,0.3-0.2,0.4c-0.2,0.6-0.6,1.3-1.2,1.4c-0.6,0-1.2-0.7-1.5-1 c-0.2-0.3-0.5-0.5-0.7-0.8c-1.2-1.2-2.3-2.4-3-4c-0.1-0.3-0.3-0.6-0.4-0.9c-0.4-0.8-0.8-1.7-1-2.6C83.8,8.9,83.3,7.9,83.8,7.9z M78,10.6c0,0,0-0.1,0.1-0.1c0.2-0.2,0.4-0.5,0.6-0.6c0.1,0,0.2,0,0.3,0c0.1,0,0.3,0,0.3-0.1c0.1,0,0.1-0.1,0.1-0.1l0,0 c0,0,0,0,0-0.1V9.5c0-0.1,0-0.2,0-0.3c0.1-0.3,0.3-0.4,0.5-0.4c0.1,0,0.2,0,0.3-0.1c0.1,0,0.1-0.1,0.1-0.1c0-0.1,0-0.1,0.1-0.2 s0.2-0.1,0.4-0.1c0.3,0,0.5,0.1,0.5,0.3c0,0.1,0.1,0.4,0.2,0.4l0.2-0.1c0.1,0,0.2,0.1,0.3,0c0.1-0.1,0.2-0.3,0.3-0.4 c0.3-0.1,0.6,1,0.7,1.2c0,0.1,0.2,0.5,0.3,1c0.1,0.2,0.3,0.7,0.4,1.2c0.2,0.5,0.3,0.9,0.4,1.1l0.2,0.3c0.8,1.7,1.6,2.9,2.5,4 c0.2,0.2,0.4,0.4,0.5,0.6c0.7,0.7,1.6,1.6,1.9,2.6c0.3,0.9-0.3,1.9-0.5,2.7c-0.2,0.7-0.4,1.5-0.6,2.2c-0.1,0.3-0.2,0.6-0.4,0.9 c-0.8,1.1-1.5-0.6-2-1.1c-0.7-0.8-1.4-1.4-2.3-2c-0.7-0.4-1.5-0.8-2-1.6c-0.2-0.3-0.5-0.6-0.6-1s-0.2-0.9-0.3-1.4 c-0.1-0.4-0.1-0.7-0.2-1.1c-0.1-0.5-0.2-1-0.4-1.5c-0.3-0.7-0.7-1.3-1-1.9c-0.3-0.7-0.5-1.4-0.8-2.1c0-0.1-0.1-0.3-0.2-0.4 C78,11.6,77.7,11,78,10.6z M72.3,15.3c0,0,0-0.1,0.1-0.1c0-0.1,0.1-0.1,0.1-0.1c0.1-0.1,0.1-0.1,0.1-0.2c0,0,0,0,0-0.1 s-0.1-0.1-0.1-0.3c0.1-0.3,0.4-0.3,0.5-0.3h0.2c0.1,0,0.2,0,0.2,0c0.3-0.1,0.4-0.2,0.5-0.6c0-0.1,0-0.2,0-0.3c0-0.3,0-0.5,0.4-0.8 c0.3-0.2,0.5-0.2,0.8-0.2h0.3c0.3,0,0.3-0.1,0.3-0.2c0.2-0.5,0.4-0.4,0.8-0.4c0.2,0,0.2,0,0.4-0.1c0.3-0.1,0.2-0.1,0.3,0.1 c0.1,0.2,0.3,0.4,0.4,0.7s0.2,0.6,0.3,0.9c0,0.2,0.1,0.3,0.1,0.5c0.2,0.6,0.4,1.2,0.7,1.9c0.1,0.2,0.2,0.4,0.2,0.6 c0.3,0.7,0.5,1.4,0.6,2.2c0,0.3,0,0.7,0.1,1c0.1,0.4,0.1,0.7,0,1.1c0,0.1-0.1,0.3-0.2,0.3s-0.5-0.2-0.6-0.3h-0.1 c-1.1-0.5-2.1-1.2-3-1.9c-0.3-0.2-0.5-0.5-0.8-0.7c-0.2-0.2-0.4-0.4-0.6-0.6c-0.2-0.1-0.3-0.3-0.5-0.4c-0.3-0.3-0.6-0.5-0.9-0.8 c-0.1,0-0.1-0.1-0.2-0.1C72.6,15.9,72.2,15.7,72.3,15.3z M69.4,19.3c0.3-0.1,0.3,0,0.4-0.3c0.2-0.5-0.1-1.7,0.8-1.7 c0.1,0,0.2,0,0.3,0c0.1,0,0.1,0,0.1,0l0,0v-0.1c0.2-0.4,0.5-0.7,1-0.7c0.3,0,0.5,0.1,0.8,0.3c0.1,0.1,0.2,0.2,0.4,0.3l0.1,0.1 l0.1,0.1l0.4,0.4c0.1,0.1,0.1,0.1,0.2,0.1c0,0,0,0,0.1,0l0.2,0.1c0.4,0.3,0.8,0.6,1.1,1l0.3,0.3c0.3,0.3,0.6,0.7,0.7,0.7l0.2,0.2 c0.6,0.5,1.2,0.9,2,1.3c0.9,0.5,1.8,1.1,1.7,2.5c-0.1,0.7-0.1,1.4-0.1,2.1c0,0.3,0,0.5,0,0.8c0,0.2,0,0.5,0,0.8s0.1,0.7,0.1,1.1 c0,0.2,0,0.5,0,0.7c0,0.6,0,1.1-0.1,1.6c0,0.1,0,0.3,0,0.5v0.1c0,0.1,0,0.4,0,0.6c0,1,0.1,2.4-0.5,3c-0.2,0.2-0.4,0.3-0.6,0.3l0,0 c-0.9,0-1.8-0.1-2.6-0.5c-0.6-0.3-0.7-1-0.8-1.6c0-0.1,0-0.2-0.1-0.3V33c-0.1-0.3-0.2-0.7-0.3-1.1c-0.4-1-0.9-1.8-1.5-2.6 c-0.2-0.3-0.5-0.7-0.7-1c-0.3-0.5-0.6-1.1-0.9-1.6c-0.5-0.8-0.8-1.7-1.1-2.6c-0.4-1-0.7-2-1-3C69.5,20.7,68.8,19.4,69.4,19.3z M64.9,23.5c0.2-0.1,0.4-0.1,0.6-0.2s0.2-0.2,0.2-0.3l0.1-0.1l0,0c0-0.1,0-0.1,0-0.2l0,0c0-0.2,0.2-0.3,0.4-0.4 c0.3-0.1,0.6,0,0.7-0.4c0.1-0.6,0.3-0.9,0.9-1.1c0.3-0.1,0.6-0.4,0.9-0.2c0.2,0.2,0.3,0.4,0.3,0.7c0.1,0.3,0.2,0.6,0.3,0.8 c0.1,0.3,0.1,0.6,0.2,0.8c0.1,0.6,0.3,1.2,0.4,1.8c0,0.3,0.2,0.8,0,1.2c-0.2,0.5-0.9,0.3-1.4,0.2c-0.4-0.1-0.8-0.1-1.2-0.2 c-0.3-0.1-0.6-0.2-0.9-0.3c-0.6-0.1-1.1-0.6-1.5-1.1C64.7,24.3,64.5,23.8,64.9,23.5z M62,28.8c0-0.1,0-0.1,0-0.1l0.2-0.4l0,0 c0.2-0.1,0.4-0.2,0.4-0.3v-0.1c-0.2-0.7,0.3-0.4,0.5-0.8c0.2-0.3,0-0.6,0.2-0.9c0.2-0.2,0.5-0.1,0.6-0.3c0.1-0.1,0.1-0.5,0.2-0.6 c0.3-0.3,0.9,0.5,1.1,0.7c0.5,0.3,1,0.5,1.5,0.7c1,0.4,2.1,0.5,3.2,0.8c0.5,0.1,1.4,0.9,1.7,1.3c0.3,0.4,0.6,0.9,0.9,1.4 c0.7,1.1,1.4,2.3,1.3,3.8c0,0.7-0.5,1.1-1.3,1.1c-0.6,0-1.2-0.2-1.6-0.3h-0.1c-0.2,0-0.4-0.1-0.5-0.1c-0.4-0.1-0.9-0.2-1.3-0.4 c-0.7-0.3-1.5-0.8-2.3-1.5c-0.3-0.3-0.6-0.5-1-0.7c-0.3-0.2-0.6-0.4-0.9-0.6c-0.5-0.4-1.1-0.8-1.7-1.1c-0.1,0-0.2-0.1-0.3-0.1 c-0.4-0.2-0.9-0.4-1-0.7C61.7,29.4,61.7,29.3,62,28.8z M59.8,34.6c0-0.2,0.2-0.3,0.4-0.5c0.1-0.1,0.2-0.2,0.3-0.3 c0.1-0.2-0.1-0.4-0.2-0.6c-0.1-0.2-0.3-0.4-0.2-0.7c0-0.1,0.1-0.2,0.2-0.2c0.1-0.1,0.1-0.1,0.1-0.2c0.1-0.3,0-0.6,0.1-0.9 c0-0.1,0.1-0.3,0.2-0.3l0.3-0.1c0-0.2,0.1-0.3,0.1-0.5c0.1,0.1,0.3,0,0.5,0.1c0.4,0.1,0.8,0.4,1.1,0.6c0.1,0.1,0.2,0.2,0.4,0.3 l0.3,0.2c0.7,0.5,1.5,0.9,2.2,1.5c0.4,0.3,0.7,0.6,1,0.9c0.5,0.4,0.9,0.9,1.5,1.2c0.8,0.4,1.8,0.7,2.9,0.8c0.6,0.1,1.1,0.2,1.8,0.4 c0.1,0,0.2,0.1,0.3,0.1c0.3,0.1,0.5,0.1,0.8,0.3c1.1,0.6,1.2,2.1,1.4,3.2c0,0.3,0.1,0.6,0.1,0.8l0.1,0.3c0.1,0.7,0.3,1.4,0.3,2.2 v0.1c0,1-0.1,1.6-0.4,1.9c-0.4,0.2-0.5,0.2-0.7,0.2c0,0-0.1,0-0.2,0c-0.5-0.1-1.1-0.6-1.5-1.1c-0.1-0.1-0.2-0.2-0.3-0.3 c-1-0.9-1.9-1.8-2.8-2.7c-1.3-1.3-2.8-1.8-4.4-2.4c-0.6-0.2-1.3-0.4-1.9-0.7c-0.1,0-0.1,0-0.2-0.1c-0.5-0.2-1.1-0.4-1.9-0.5l0,0 c-0.4-0.1-1-0.2-1.2-0.5c-0.1-0.2-0.1-0.4,0-0.6c0.1-0.3,0.1-0.4,0-0.6c0,0,0,0-0.1,0s-0.1-0.1-0.2-0.2c-0.1-0.1,0-0.3,0-0.4v-0.1 c0-0.1,0-0.2,0-0.3C59.8,34.9,59.8,34.7,59.8,34.6z M59.4,43.4c0-0.1,0.1-0.2,0.1-0.3c0.1-0.2,0.2-0.3,0.1-0.5 c0-0.1-0.1-0.2-0.1-0.3c-0.1-0.1-0.1-0.2-0.1-0.4s0-0.3,0.1-0.4c0-0.1,0.1-0.3,0.1-0.4V41c0-0.1-0.1-0.2,0-0.3s0.1-0.1,0.2-0.1 c0,0,0.1,0,0.1-0.1c0.2-0.2,0.2-0.7,0.1-0.9c-0.1-0.2-0.2-0.2-0.2-0.4c-0.1-0.2-0.2-0.5-0.2-0.7c0.5-0.2,0.8-0.1,1.2,0.1 c0.7,0.3,1.5,0.4,2.3,0.6c0.6,0.2,1.2,0.5,1.8,0.7c1.2,0.5,2.2,1.1,3.2,1.8c0.8,0.6,1.4,1.3,2,2c0.2,0.2,0.4,0.5,0.6,0.7 c0.5,0.6,1,1.1,1.6,1.5c0.5,0.4,1,0.9,1.4,1.3c0.1,0.1,0.2,0.2,0.3,0.3c0.4,0.3,0.8,0.7,0.8,1.2c0,0.3-0.1,0.6-0.3,0.8 c-0.2,0.1-0.4,0.2-0.7,0.2c-0.2,0-0.5,0-0.7,0c-0.5,0-1.2,0-1.8-0.2c-0.8-0.3-1.6-0.6-2.4-1l-0.4-0.2c-1.1-0.5-2.5-0.6-3.7-0.8 c-0.3,0-0.6-0.1-0.9-0.1s-0.7-0.1-1-0.1c-0.2,0-0.3,0-0.5,0c-0.4,0-0.7-0.1-1-0.1c-0.6-0.1-1.1-0.2-1.7-0.2h-0.1v-0.1 c0-0.3,0-0.5,0.1-0.8s0.1-0.6,0.1-0.8s-0.1-0.3-0.2-0.4c-0.1-0.2-0.3-0.4-0.3-0.7C59.3,44,59.3,43.7,59.4,43.4z"></path> <polygon class="st0" points="30.8,140.7 29.7,140.7 29.7,145.1 27.6,145.1 27.6,140.7 26.6,140.7 26.6,146 30.4,146 30.4,147.2 31.4,147.2 31.4,145.1 30.8,145.1 "></polygon> <polygon class="st0" points="33.5,146 36.5,146 36.5,145.1 34.6,145.1 34.6,143.7 36.4,143.7 36.4,142.8 34.6,142.8 34.6,141.6 36.5,141.6 36.5,140.7 33.5,140.7 "></polygon> <polygon class="st0" points="42.2,142.8 40,142.8 40,140.7 38.9,140.7 38.9,146 40,146 40,143.7 42.2,143.7 42.2,146 43.3,146 43.3,140.7 42.2,140.7 "></polygon> <polygon class="st0" points="45.4,141.6 46.6,141.6 46.6,146 47.6,146 47.6,141.6 48.8,141.6 48.8,140.7 45.4,140.7 "></polygon> <path class="st0" d="M52.5,140.7h-1.6v5.3h1v-2h0.7c0.6,0,1.1-0.2,1.4-0.5c0.4-0.4,0.4-1,0.4-1.2c0-0.4-0.1-0.9-0.5-1.3 C53.5,140.8,53.1,140.7,52.5,140.7z M53.1,143c-0.2,0.2-0.5,0.2-0.7,0.2H52v-1.6h0.4c0.2,0,0.5,0,0.7,0.2c0.2,0.1,0.3,0.3,0.3,0.6 C53.4,142.6,53.3,142.8,53.1,143z"></path> <path class="st0" d="M62.8,143.1c0.4-0.2,0.7-0.7,0.7-1.1c0-0.8-0.7-1.4-1.8-1.4c-0.7,0-1.2,0.2-1.6,0.6l0.5,0.7 c0.3-0.4,0.8-0.4,1.1-0.4c0.5,0,0.8,0.2,0.8,0.6c0,0.4-0.4,0.7-0.9,0.7h-0.5v0.9h0.5c0.4,0,1.2,0.1,1.2,0.8c0,0.4-0.3,0.8-1,0.8 c-0.5,0-1.1-0.2-1.4-0.8l-0.7,0.6c0.4,0.6,1.1,1,2,1c1.2,0,2.1-0.7,2.1-1.7C63.8,143.8,63.4,143.3,62.8,143.1z"></path> <path class="st0" d="M70.3,140.7h-3.6v2.3c0,0.7-0.1,1.1-0.2,1.4c-0.2,0.4-0.5,0.7-0.8,0.7v2.1h1V146H70v1.2h1v-2.1h-0.6v-4.4H70.3 z M69.3,145.1h-2.2c0.2-0.1,0.3-0.3,0.4-0.6s0.2-0.7,0.2-1.5v-1.4h1.6V145.1z"></path> <path class="st0" d="M75.4,140.6c-1.7,0-2.8,1.2-2.8,2.8s1.2,2.8,2.8,2.8c1.7,0,2.9-1.2,2.9-2.8S77.1,140.6,75.4,140.6z M75.4,145.2c-1,0-1.8-0.8-1.8-1.8c0-1.1,0.7-1.8,1.8-1.8c1,0,1.8,0.8,1.8,1.8C77.2,144.5,76.5,145.2,75.4,145.2z"></path> <path class="st0" d="M82.1,140.7h-1.6v5.3h1v-2h0.7c0.6,0,1.1-0.2,1.4-0.5c0.4-0.4,0.4-1,0.4-1.2c0-0.4-0.1-0.9-0.5-1.3 C83.1,140.8,82.7,140.7,82.1,140.7z M82.7,143c-0.2,0.2-0.5,0.2-0.7,0.2h-0.4v-1.6H82c0.2,0,0.5,0,0.7,0.2c0.2,0.1,0.3,0.3,0.3,0.6 C82.9,142.6,82.8,142.8,82.7,143z"></path> <path class="st0" d="M88.8,140.6c-1.7,0-2.8,1.2-2.8,2.8s1.2,2.8,2.8,2.8c1.7,0,2.9-1.2,2.9-2.8S90.5,140.6,88.8,140.6z M88.8,145.2c-1,0-1.8-0.8-1.8-1.8c0-1.1,0.7-1.8,1.8-1.8c1,0,1.8,0.8,1.8,1.8C90.6,144.5,89.9,145.2,88.8,145.2z"></path> <path class="st0" d="M96.3,143.2c0.1-0.1,0.6-0.4,0.6-1c0-0.4-0.2-0.9-0.5-1.1c-0.4-0.3-1-0.3-1.3-0.3h-1.3v5.3h1.8 c0.5,0,1-0.1,1.4-0.4c0.4-0.3,0.5-0.8,0.5-1.1s-0.1-0.7-0.4-1C96.8,143.4,96.6,143.2,96.3,143.2z M94.8,141.6h0.3 c0.4,0,0.8,0.2,0.8,0.7c0,0.7-0.6,0.7-0.8,0.7h-0.3V141.6z M96,145c-0.2,0.1-0.5,0.1-0.7,0.1h-0.4v-1.5h0.3c0.2,0,0.5,0,0.7,0.1 c0.3,0.2,0.4,0.4,0.4,0.6C96.3,144.6,96.2,144.9,96,145z"></path> <path class="st0" d="M101.6,142.8h-0.8v-2.1h-1v5.3h1.9c0.4,0,1.1-0.1,1.5-0.7c0.2-0.3,0.3-0.6,0.3-1c0-0.5-0.2-0.9-0.5-1.2 C102.5,142.8,102,142.8,101.6,142.8z M101.4,145.1h-0.6v-1.5h0.6c0.8,0,0.9,0.4,0.9,0.7C102.4,145.1,101.6,145.1,101.4,145.1z"></path> <path class="st0" d="M105.9,141.1c-0.3,0.2-0.5,0.7-0.5,1.2c0,0.6,0.3,1.1,0.6,1.3c0.2,0.1,0.4,0.2,0.6,0.2L105,146h1.2l1.4-2.1 h0.2v2.1h1v-5.3h-1.5C106.8,140.7,106.3,140.7,105.9,141.1z M107.8,141.6v1.6h-0.3c-0.2,0-1,0-1-0.8s0.8-0.8,1-0.8H107.8z"></path> <polygon class="st0" points="115.8,144.3 115.8,140.7 114.8,140.7 114.8,146.1 115.5,146.1 118.4,142.4 118.4,146 119.5,146 119.5,140.6 118.8,140.6 "></polygon> <polygon class="st0" points="129.8,140.7 128.5,140.7 126.5,143 126.5,140.7 125.5,140.7 125.5,146 126.5,146 126.5,143.8 126.6,143.6 128.5,146 129.9,146 127.5,143.2 "></polygon> <path class="st0" d="M133.4,140.7h-1.6v5.3h1v-2h0.7c0.6,0,1.1-0.2,1.4-0.5c0.4-0.4,0.4-1,0.4-1.2c0-0.4-0.1-0.9-0.5-1.3 C134.4,140.8,134,140.7,133.4,140.7z M134,143c-0.2,0.2-0.5,0.2-0.7,0.2h-0.4v-1.6h0.4c0.2,0,0.5,0,0.7,0.2 c0.2,0.1,0.3,0.3,0.3,0.6C134.3,142.6,134.2,142.8,134,143z"></path> <path class="st0" d="M138.9,140.6l-2.3,5.5h1.1l0.5-1.1h2.2l0.5,1.1h1.1l-2.2-5.5H138.9z M138.5,144.1l0.8-1.9l0.8,1.9H138.5z"></path> <path class="st0" d="M144.3,141.3c-0.5,0.4-0.9,1.1-0.9,2.1c0,0.8,0.2,1.4,0.9,2c0.4,0.4,1,0.7,2,0.7c0.6,0,1-0.1,1.3-0.3v-1.2 c-0.3,0.4-0.8,0.6-1.2,0.6c-0.9,0-1.8-0.6-1.8-1.8c0-1,0.7-1.9,1.8-1.9c0.2,0,0.8,0,1.3,0.6v-1.2c-0.5-0.3-0.9-0.3-1.3-0.3 C145.5,140.6,144.8,140.8,144.3,141.3z"></path> <path class="st0" d="M152.2,140.6c-1.7,0-2.8,1.2-2.8,2.8s1.2,2.8,2.8,2.8c1.7,0,2.9-1.2,2.9-2.8S153.9,140.6,152.2,140.6z M152.2,145.2c-1,0-1.8-0.8-1.8-1.8c0-1.1,0.7-1.8,1.8-1.8c1,0,1.8,0.8,1.8,1.8C154,144.5,153.3,145.2,152.2,145.2z"></path> <polygon class="st0" points="156.8,141.6 158,141.6 158,146 159,146 159,141.6 160.2,141.6 160.2,140.7 156.8,140.7 "></polygon> <rect x="166.5" y="140.7" class="st0" width="1" height="5.3"></rect> <path class="st0" d="M164.2,142.8h-0.8v-2.1h-1v5.3h1.9c0.4,0,1.1-0.1,1.5-0.7c0.2-0.3,0.3-0.6,0.3-1c0-0.5-0.2-0.9-0.5-1.2 C165.1,142.8,164.6,142.8,164.2,142.8z M164,145.1h-0.6v-1.5h0.6c0.8,0,0.9,0.4,0.9,0.7C164.9,145.1,164.1,145.1,164,145.1z"></path> </g> </svg> 