<?xml version="1.0" encoding="UTF-8"?> <svg xmlns="http://www.w3.org/2000/svg" viewBox="0 0 921.87 121.75"> <defs> <style>.cls-1{fill:#4b45ec;}.cls-2{fill:#f5e23d;}</style> </defs> <g id="Слой_2" data-name="Слой 2"> <g id="Слой_1-2" data-name="Слой 1"> <path class="cls-1" d="M21.53,38.1C21.53,50,36.09,53,53.13,53c25.09,0,48,6.67,48,34.08,0,21.38-26.33,34.7-50.49,34.7-21.37,0-37.95-6.82-50.65-18L9.14,90.3c10.07,9.92,23.85,16,41.35,16C71.25,106.26,84,96.5,84,87.05c0-13.78-12.7-18.12-30.05-18.12C31,68.93,4.34,63.82,4.34,38.1,4.34,16,32.53,6.82,51.58,6.82c13.63,0,30.67,3.4,43.06,11.15V36.71H81l-1.86-9.29C71.09,23.7,60.72,22.3,51.58,22.3,36.09,22.3,21.53,29.43,21.53,38.1Z"></path> <path class="cls-1" d="M117.11,121.28V34.54H129.5l2,10.84c8.52-6.34,17.35-11.3,26.34-11.3,12.54,0,22.15,4.64,27.41,13.94,9.45-7.59,19.36-13.94,29.59-13.94,19.36,0,31.75,10.84,31.75,33v54.21H231.11V66.14c0-9.14-4.34-17.34-15.18-17.34-9.91,0-17.66,4.49-26.8,11.61a46.51,46.51,0,0,1,.47,6.66v54.21H174.11V66.14c0-9.14-4.34-17.34-15.18-17.34-9.76,0-17.5,4.33-26.33,11.3v61.18Z"></path> <path class="cls-1" d="M272.94,3.72c5.43,0,9.92,4,9.92,9s-4.49,8.83-9.92,8.83-9.75-3.87-9.75-8.83S267.52,3.72,272.94,3.72Zm7.75,117.56H265.2V34.54h15.49Z"></path> <path class="cls-1" d="M314.77,121.28H299.28V3.1L314.77,0Z"></path> <path class="cls-1" d="M397.17,95.88l9.45,11.93c-1.86,2.32-12.23,13.94-34.54,13.94-24.16,0-43.52-19.21-43.52-44a43.33,43.33,0,0,1,43.21-43.67c23.24,0,42,18.89,42,43.67a53.22,53.22,0,0,1-.31,5.58H344.51c2.79,13.32,13.94,23.39,27.57,23.39C387,106.72,394.54,99,397.17,95.88Zm-52-26.95h51.74c-1.86-10.38-12.4-19.36-25.1-19.36C358.76,49.57,348.23,57.78,345.13,68.93Z"></path> <path class="cls-2" d="M565.89,64.28c0,31.76-27.26,57.47-59,57.47C475.29,121.75,448,96,448,64.28,448,32.68,475.29,7,506.88,7,538.63,7,565.89,32.68,565.89,64.28Zm-102.38,0c0,24.94,22,42,43.37,42,25.09,0,43.53-20.75,43.53-42,0-25.4-22.62-41.82-43.53-41.82C482.1,22.46,463.51,43.06,463.51,64.28Z"></path> <path class="cls-1" d="M525.25,68.93c-2.17,7.83-9.57,13.6-18.71,13.6-8.92,0-16.31-6.31-17.62-13.6H477.64c2.71,14.26,14.59,24.47,28.9,24.47a30.32,30.32,0,0,0,29.73-24.47Z"></path> <path class="cls-1" d="M581.87,121.28V34.54h12.39l2.47,13.17c9.76-7.44,23.55-13.63,33.61-13.63,16.27,0,30.21,10.84,30.21,33v54.21H645.06V66.14c0-9.14-6.66-17.34-16.73-17.34-10.84,0-20.44,5.42-31,13.78v58.7Z"></path> <path class="cls-1" d="M691.54,121.28H676V3.1L691.54,0Z"></path> <path class="cls-1" d="M717.87,3.72c5.42,0,9.91,4,9.91,9s-4.49,8.83-9.91,8.83-9.76-3.87-9.76-8.83S712.45,3.72,717.87,3.72Zm7.74,117.56H710.12V34.54h15.49Z"></path> <path class="cls-1" d="M744.21,121.28V34.54H756.6l2.48,13.17c9.75-7.44,23.54-13.63,33.61-13.63,16.26,0,30.2,10.84,30.2,33v54.21H807.4V66.14c0-9.14-6.66-17.34-16.73-17.34-10.84,0-20.44,5.42-31,13.78v58.7Z"></path> <path class="cls-1" d="M905.3,95.88l9.45,11.93c-1.86,2.32-12.24,13.94-34.54,13.94-24.17,0-43.53-19.21-43.53-44A43.33,43.33,0,0,1,879.9,34.08c23.23,0,42,18.89,42,43.67a50.62,50.62,0,0,1-.31,5.58H852.64c2.78,13.32,13.94,23.39,27.57,23.39C895.08,106.72,902.67,99,905.3,95.88Zm-52-26.95H905c-1.86-10.38-12.39-19.36-25.09-19.36C866.89,49.57,856.36,57.78,853.25,68.93Z"></path> </g> </g> </svg> 